<svg xmlns="http://www.w3.org/2000/svg" width="13.62" height="14" viewBox="0 0 13.62 14">
  <metadata><?xpacket begin="﻿" id="W5M0MpCehiHzreSzNTczkc9d"?>
<x:xmpmeta xmlns:x="adobe:ns:meta/" x:xmptk="Adobe XMP Core 5.6-c142 79.160924, 2017/07/13-01:06:39        ">
   <rdf:RDF xmlns:rdf="http://www.w3.org/1999/02/22-rdf-syntax-ns#">
      <rdf:Description rdf:about=""/>
   </rdf:RDF>
</x:xmpmeta>
                                                                                                    
                                                                                                    
                                                                                                    
                                                                                                    
                                                                                                    
                                                                                                    
                                                                                                    
                                                                                                    
                                                                                                    
                                                                                                    
                                                                                                    
                                                                                                    
                                                                                                    
                                                                                                    
                                                                                                    
                                                                                                    
                                                                                                    
                                                                                                    
                                                                                                    
                                                                                                    
                           
<?xpacket end="w"?></metadata>
<defs>
    <style>
      .cls-1 {
        fill: #fff;
        fill-rule: evenodd;
      }
    </style>
  </defs>
  <path id="Forma_1" data-name="Forma 1" class="cls-1" d="M1386.69,21.007a7,7,0,1,0,6.8,7A6.908,6.908,0,0,0,1386.69,21.007Zm1.41,10.85c-0.35.142-.63,0.25-0.83,0.324a2.2,2.2,0,0,1-.73.113,1.411,1.411,0,0,1-.99-0.319,1.06,1.06,0,0,1-.35-0.81c0-.127.01-0.258,0.02-0.391s0.05-.282.09-0.45l0.44-1.593c0.04-.154.07-0.3,0.1-0.434a2.6,2.6,0,0,0,.03-0.375,0.6,0.6,0,0,0-.12-0.425,0.682,0.682,0,0,0-.47-0.119,1.113,1.113,0,0,0-.34.053c-0.12.037-.22,0.071-0.31,0.1l0.12-.491c0.28-.12.56-0.224,0.82-0.309a2.363,2.363,0,0,1,.74-0.129,1.414,1.414,0,0,1,.98.314,1.048,1.048,0,0,1,.34.815c0,0.069-.01.191-0.02,0.366a3.221,3.221,0,0,1-.09.481l-0.44,1.588q-0.045.192-.09,0.436a2.381,2.381,0,0,0-.05.372,0.551,0.551,0,0,0,.14.431,0.756,0.756,0,0,0,.48.115,1.327,1.327,0,0,0,.36-0.058,2.086,2.086,0,0,0,.29-0.1Zm-0.07-6.447a1.044,1.044,0,0,1-.74.291,1.02,1.02,0,0,1-.73-0.291,0.964,0.964,0,0,1,0-1.416,1.013,1.013,0,0,1,.73-0.294,1.036,1.036,0,0,1,.74.294A0.986,0.986,0,0,1,1388.03,25.41Z" transform="translate(-1379.88 -21)"/>
</svg>
