<svg xmlns="http://www.w3.org/2000/svg" width="16.156" height="16.188" viewBox="0 0 16.156 16.188">
  <metadata><?xpacket begin="﻿" id="W5M0MpCehiHzreSzNTczkc9d"?>
<x:xmpmeta xmlns:x="adobe:ns:meta/" x:xmptk="Adobe XMP Core 5.6-c142 79.160924, 2017/07/13-01:06:39        ">
   <rdf:RDF xmlns:rdf="http://www.w3.org/1999/02/22-rdf-syntax-ns#">
      <rdf:Description rdf:about=""/>
   </rdf:RDF>
</x:xmpmeta>
                                                                                                    
                                                                                                    
                                                                                                    
                                                                                                    
                                                                                                    
                                                                                                    
                                                                                                    
                                                                                                    
                                                                                                    
                                                                                                    
                                                                                                    
                                                                                                    
                                                                                                    
                                                                                                    
                                                                                                    
                                                                                                    
                                                                                                    
                                                                                                    
                                                                                                    
                                                                                                    
                           
<?xpacket end="w"?></metadata>
<defs>
    <style>
      .cls-1 {
        fill: #acacac;
        fill-rule: evenodd;
      }
    </style>
  </defs>
  <path class="cls-1" d="M33.676,408.946H31.6c0.007-.23.012-0.462,0.012-0.694a0.474,0.474,0,0,0-.473-0.474H21.006a0.474,0.474,0,0,0-.473.474c0,0.232,0,.464.012,0.694H18.473a0.473,0.473,0,0,0-.473.474,10.293,10.293,0,0,0,1.56,5.644,4.934,4.934,0,0,0,3.75,2.441,4.867,4.867,0,0,0,1.025.863v2.107H23.54a1.743,1.743,0,0,0-1.739,1.744v0.8H21.767a0.475,0.475,0,0,0,0,.949h8.615a0.475,0.475,0,0,0,0-.949H30.348v-0.8a1.743,1.743,0,0,0-1.74-1.744H27.814v-2.107a4.882,4.882,0,0,0,1.025-.863,4.936,4.936,0,0,0,3.75-2.441,10.287,10.287,0,0,0,1.56-5.644,0.474,0.474,0,0,0-.473-0.474h0Zm-13.329,5.593a9.143,9.143,0,0,1-1.391-4.645H20.6a15.874,15.874,0,0,0,1.47,5.753c0.127,0.253.258,0.491,0.4,0.716a4.558,4.558,0,0,1-2.116-1.824h0Zm11.454,0a4.557,4.557,0,0,1-2.115,1.824c0.137-.225.268-0.463,0.395-0.716a15.89,15.89,0,0,0,1.47-5.753h1.642a9.159,9.159,0,0,1-1.392,4.645h0Zm0,0" transform="translate(-18 -407.781)"/>
</svg>
