<svg xmlns="http://www.w3.org/2000/svg" width="11.22" height="11.531" viewBox="0 0 11.22 11.531">
  <metadata><?xpacket begin="﻿" id="W5M0MpCehiHzreSzNTczkc9d"?>
<x:xmpmeta xmlns:x="adobe:ns:meta/" x:xmptk="Adobe XMP Core 5.6-c142 79.160924, 2017/07/13-01:06:39        ">
   <rdf:RDF xmlns:rdf="http://www.w3.org/1999/02/22-rdf-syntax-ns#">
      <rdf:Description rdf:about=""/>
   </rdf:RDF>
</x:xmpmeta>
                                                                                                    
                                                                                                    
                                                                                                    
                                                                                                    
                                                                                                    
                                                                                                    
                                                                                                    
                                                                                                    
                                                                                                    
                                                                                                    
                                                                                                    
                                                                                                    
                                                                                                    
                                                                                                    
                                                                                                    
                                                                                                    
                                                                                                    
                                                                                                    
                                                                                                    
                                                                                                    
                           
<?xpacket end="w"?></metadata>
<defs>
    <style>
      .cls-1 {
        fill: #fff;
        fill-rule: evenodd;
      }
    </style>
  </defs>
  <path id="Forma_1" data-name="Forma 1" class="cls-1" d="M1190.35,28.9a0.4,0.4,0,0,0-.31-0.14h-1.57V26.6l1.21-1.272a0.461,0.461,0,0,0,0-.662,0.414,0.414,0,0,0-.31-0.14,0.436,0.436,0,0,0-.32.14l-1.21,1.272h-5.91l-1.21-1.272a0.42,0.42,0,0,0-.32-0.14,0.414,0.414,0,0,0-.31.14,0.486,0.486,0,0,0,0,.662l1.21,1.272v2.162h-1.57a0.415,0.415,0,0,0-.31.14,0.461,0.461,0,0,0,0,.662,0.414,0.414,0,0,0,.31.14h1.57a4.593,4.593,0,0,0,.41,2.014l-1.42,1.669a0.516,0.516,0,0,0-.11.342,0.5,0.5,0,0,0,.15.327,0.446,0.446,0,0,0,.3.118,0.422,0.422,0,0,0,.33-0.154l1.29-1.522,0.1,0.1q0.105,0.1.3,0.239c0.14,0.1.3,0.191,0.47,0.287a2.691,2.691,0,0,0,.61.243,2.568,2.568,0,0,0,.71.1V26.882h0.89v6.588a2.5,2.5,0,0,0,.68-0.1,3.318,3.318,0,0,0,.58-0.213,4.738,4.738,0,0,0,.45-0.268q0.225-.15.3-0.209c0.04-.039.08-0.071,0.1-0.1l1.39,1.449a0.4,0.4,0,0,0,.31.14,0.42,0.42,0,0,0,.32-0.14,0.486,0.486,0,0,0,0-.662L1188,31.838a4.379,4.379,0,0,0,.47-2.132h1.57a0.435,0.435,0,0,0,.32-0.14,0.5,0.5,0,0,0,.13-0.331A0.465,0.465,0,0,0,1190.35,28.9Zm-3.88-5.57a2.088,2.088,0,0,0-1.58-.688,2.109,2.109,0,0,0-1.59.688,2.308,2.308,0,0,0-.65,1.665h4.48A2.317,2.317,0,0,0,1186.47,23.334Z" transform="translate(-1179.28 -22.656)"/>
</svg>
