<svg xmlns="http://www.w3.org/2000/svg" width="12.81" height="13.188" viewBox="0 0 12.81 13.188">
  <metadata><?xpacket begin="﻿" id="W5M0MpCehiHzreSzNTczkc9d"?>
<x:xmpmeta xmlns:x="adobe:ns:meta/" x:xmptk="Adobe XMP Core 5.6-c142 79.160924, 2017/07/13-01:06:39        ">
   <rdf:RDF xmlns:rdf="http://www.w3.org/1999/02/22-rdf-syntax-ns#">
      <rdf:Description rdf:about=""/>
   </rdf:RDF>
</x:xmpmeta>
                                                                                                    
                                                                                                    
                                                                                                    
                                                                                                    
                                                                                                    
                                                                                                    
                                                                                                    
                                                                                                    
                                                                                                    
                                                                                                    
                                                                                                    
                                                                                                    
                                                                                                    
                                                                                                    
                                                                                                    
                                                                                                    
                                                                                                    
                                                                                                    
                                                                                                    
                                                                                                    
                           
<?xpacket end="w"?></metadata>
<defs>
    <style>
      .cls-1 {
        fill: #fff;
        fill-rule: evenodd;
      }
    </style>
  </defs>
  <path class="cls-1" d="M1045.11,21.823a6.591,6.591,0,1,0,6.41,6.588,6.5,6.5,0,0,0-6.41-6.588h0Zm2.17,9.752a2.479,2.479,0,0,1-1.69.8v1.159h-0.95V32.38a2.506,2.506,0,0,1-2.29-2.212l1.46-.391a1.283,1.283,0,0,0,1.34,1.267,1.031,1.031,0,0,0,.79-0.271,0.964,0.964,0,0,0,.25-0.655,0.752,0.752,0,0,0-.25-0.6,4.514,4.514,0,0,0-1.12-.52,6.3,6.3,0,0,1-1.21-.549,1.959,1.959,0,0,1-.71-0.758,2.22,2.22,0,0,1-.28-1.138,2.606,2.606,0,0,1,.49-1.532,2.182,2.182,0,0,1,1.53-.831v-0.9h0.95v0.9a2.3,2.3,0,0,1,2.04,1.84l-1.29.548a1.332,1.332,0,0,0-1.18-1.128,0.837,0.837,0,0,0-.64.252,0.854,0.854,0,0,0-.24.611,0.678,0.678,0,0,0,.23.562,3.9,3.9,0,0,0,1,.484,8.255,8.255,0,0,1,1.31.6,2.105,2.105,0,0,1,.77.775,2.274,2.274,0,0,1,.28,1.156,2.451,2.451,0,0,1-.59,1.693h0Zm-0.42-.62" transform="translate(-1038.72 -21.813)"/>
</svg>
