<svg id="Capa_1" data-name="Capa 1" xmlns="http://www.w3.org/2000/svg" viewBox="0 0 355.76 355.64"><defs><style>.cls-1{fill:#810f00;}.cls-2{fill:#fc0f00;}.cls-3{fill:#a8a8a7;}</style></defs><title>Feats_of_Strength</title><polyline class="cls-1" points="256.79 208.26 229.12 179.24 177.88 227.97 208.19 256.8"/><polyline class="cls-1" points="177.88 125.49 68.71 10.98 6.95 7.26 10.67 68.95 126.64 179.24"/><path class="cls-2" d="M301,301a27.85,27.85,0,0,0-8.2,20.12l-48.75-48.69a88.13,88.13,0,0,1,28.34-28.3l48.75,48.69A27.94,27.94,0,0,0,301,301Z"/><path class="cls-3" d="M197.61,284.86a125.82,125.82,0,0,1,87.28-87.17l8.26,37.08a87.64,87.64,0,0,0-58.42,58.34Z"/><path class="cls-3" d="M301,340.52A28,28,0,1,0,301,301,28,28,0,0,0,301,340.52Z"/><path class="cls-2" d="M272.7,301a20,20,0,1,0,0-28.3A20.05,20.05,0,0,0,272.7,301Z"/><path d="M44.52,51.74a7,7,0,0,1-1.36-.14,6.73,6.73,0,0,1-1.3-.4,6.91,6.91,0,0,1-1.2-.64,6.68,6.68,0,0,1-1-.86,7.24,7.24,0,0,1-.87-1.05,7.33,7.33,0,0,1-.63-1.21,5.84,5.84,0,0,1-.4-1.29,7.06,7.06,0,0,1-.14-1.36,6.9,6.9,0,0,1,.14-1.36,5.93,5.93,0,0,1,.4-1.3,6.86,6.86,0,0,1,.63-1.2,7.32,7.32,0,0,1,.87-1.06,6.68,6.68,0,0,1,1-.86,6.91,6.91,0,0,1,1.2-.64,7.5,7.5,0,0,1,1.3-.4,6.87,6.87,0,0,1,2.71,0,7,7,0,0,1,1.3.4,6.84,6.84,0,0,1,2.26,1.5,7.25,7.25,0,0,1,.86,1.06,6.91,6.91,0,0,1,.64,1.2,6.55,6.55,0,0,1,.41,1.3,6.89,6.89,0,0,1,.13,1.36,7,7,0,0,1-2,4.91,6.84,6.84,0,0,1-2.26,1.5,6.32,6.32,0,0,1-1.3.4A6.8,6.8,0,0,1,44.52,51.74Z"/><path class="cls-2" d="M54.72,301a27.85,27.85,0,0,1,8.2,20.12l48.75-48.69a88.13,88.13,0,0,0-28.34-28.3L34.58,292.81A27.94,27.94,0,0,1,54.72,301Z"/><polyline class="cls-2" points="147.57 256.8 345.09 68.95 348.81 7.26 287.05 10.98 98.97 208.26"/><path class="cls-3" d="M158.15,284.86a125,125,0,0,0-32.21-55,125.3,125.3,0,0,0-55.07-32.17l-8.25,37.08A87.65,87.65,0,0,1,121,293.11Z"/><path class="cls-3" d="M54.72,340.52a28,28,0,1,1,0-39.53A28,28,0,0,1,54.72,340.52Z"/><path class="cls-2" d="M83.06,301a20,20,0,1,1,0-28.3A20.05,20.05,0,0,1,83.06,301Z"/><path d="M345.53,296.08a34.78,34.78,0,0,0-21.3-10L306,267.84l-.07-.06-.07-.07-22-21.94a79.36,79.36,0,0,1,11.24-4.35,7,7,0,0,0,4.77-8.16l-8.26-37.07A7,7,0,0,0,283,191a131.64,131.64,0,0,0-24.16,9.37L239,179.48,349.88,74A6.93,6.93,0,0,0,352,69.37l3.72-61.69A6.94,6.94,0,0,0,348.4.33L286.64,4A7,7,0,0,0,282,6.18L177.88,115.42,73.74,6.18A7,7,0,0,0,69.13,4L7.37.33A6.94,6.94,0,0,0,0,7.68L3.73,69.37A7,7,0,0,0,5.88,74l110.93,105.5L96.89,200.37A131.36,131.36,0,0,0,72.73,191a7,7,0,0,0-8.64,5.18l-8.26,37.08a7,7,0,0,0,4.77,8.16,79,79,0,0,1,11.25,4.35l-22,21.94-.06.06-.06.07L31.53,286a34.89,34.89,0,1,0,28.1,59.4,34.61,34.61,0,0,0,10.08-21.29L110,283.89a80.64,80.64,0,0,1,4.36,11.24,7,7,0,0,0,6.65,4.93,6.54,6.54,0,0,0,1.51-.17l37.11-8.24a6.94,6.94,0,0,0,5.19-8.65,130.59,130.59,0,0,0-9.38-24.12l22.42-21.32,22.42,21.32A132,132,0,0,0,190.92,283a7,7,0,0,0,5.19,8.65l37.11,8.24a6.62,6.62,0,0,0,1.52.17,6.94,6.94,0,0,0,6.64-4.93,80.16,80.16,0,0,1,4.36-11.24l40.32,40.26a34.59,34.59,0,0,0,10.07,21.29h0a34.92,34.92,0,1,0,49.4-49.36Zm-49.47-18.54.13.13a13,13,0,0,1-.06,18.41,13.14,13.14,0,0,1-18.52,0h0a13.08,13.08,0,0,1,18.45-18.54Zm-49.59-70A133.69,133.69,0,0,0,230,220.17l-16.48-16.46,15.41-14.65ZM17.44,65.8,14.36,14.67l51.21,3.08L168.28,125.49l-16.16,17L69.65,60.07a6.95,6.95,0,0,0-9.82,9.83l82.7,82.6L126.4,169.42Zm51.45,208a13.06,13.06,0,0,1,9.26,22.3h0a13.13,13.13,0,0,1-18.51,0,13.06,13.06,0,0,1-.07-18.41l.13-.12A13,13,0,0,1,68.89,273.78ZM49.81,335.61a21.08,21.08,0,0,1-29.75,0,21,21,0,0,1,29.75-29.7,21,21,0,0,1,0,29.7Zm45-56.21a27,27,0,0,0-18.51-18.47l7.88-7.86a79.26,79.26,0,0,1,10,8.49,80,80,0,0,1,8.49,10ZM125.59,285A94.62,94.62,0,0,0,70.75,230.2L76,206.58a118.91,118.91,0,0,1,73.25,73.14Zm10-55L295.93,69.9a6.95,6.95,0,1,0-9.82-9.83l-160.3,160.1a133,133,0,0,0-16.52-12.66L290.2,17.75l51.21-3.08L338.32,65.8l-190,180.69h0A134.41,134.41,0,0,0,135.64,230ZM188,228l15.44-14.68L220.12,230a133.65,133.65,0,0,0-12.68,16.5Zm42.21,57-23.67-5.26a118.91,118.91,0,0,1,73.25-73.14L285,230.2A94.62,94.62,0,0,0,230.17,285Zm31.37-23.42a79.35,79.35,0,0,1,10-8.49l7.87,7.86a27,27,0,0,0-18.51,18.48l-7.87-7.86A80,80,0,0,1,261.54,261.56Zm74.17,74.05a21.09,21.09,0,0,1-29.76,0h0a21,21,0,0,1,0-29.7,21.09,21.09,0,0,1,29.76,0,21,21,0,0,1,0,29.7Z"/></svg>