<svg id="Capa_1" data-name="Capa 1" xmlns="http://www.w3.org/2000/svg" viewBox="0 0 473.68 473.68"><defs><style>.cls-1{fill:#214391;}.cls-2{fill:#2b479d;}.cls-3{fill:#f8d12e;}</style></defs><title>Artboard 1</title><path class="cls-1" d="M236.84,0V473.68c130.8,0,236.84-106,236.84-236.84S367.64,0,236.84,0Z"/><path class="cls-2" d="M236.84,0C106,0,0,106,0,236.84S106,473.68,236.84,473.68,367.64,0,236.84,0Z"/><polygon class="cls-3" points="236.43 41.08 242.21 58.85 260.91 58.85 245.78 69.84 251.56 87.62 236.43 76.62 221.31 87.62 227.09 69.84 211.96 58.85 230.65 58.85 236.43 41.08"/><polygon class="cls-3" points="236.43 376.69 242.21 394.47 260.91 394.47 245.78 405.46 251.56 423.24 236.43 412.25 221.31 423.24 227.09 405.46 211.96 394.47 230.65 394.47 236.43 376.69"/><polygon class="cls-3" points="328.54 70.82 334.31 88.6 353.01 88.6 337.88 99.6 343.66 117.37 328.54 106.38 313.41 117.37 319.19 99.6 304.07 88.6 322.77 88.6 328.54 70.82"/><polygon class="cls-3" points="391.38 132.82 397.16 150.6 415.86 150.6 400.73 161.59 406.51 179.37 391.38 168.38 376.26 179.37 382.04 161.59 366.91 150.6 385.6 150.6 391.38 132.82"/><polygon class="cls-3" points="392.88 289.47 398.65 307.26 417.35 307.26 402.23 318.25 408.01 336.02 392.88 325.04 377.75 336.02 383.53 318.25 368.4 307.26 387.1 307.26 392.88 289.47"/><polygon class="cls-3" points="83.75 132.82 89.53 150.6 108.22 150.6 93.1 161.59 98.87 179.37 83.75 168.38 68.63 179.37 74.41 161.59 59.28 150.6 77.98 150.6 83.75 132.82"/><polygon class="cls-3" points="405.95 207.53 411.72 225.31 430.42 225.31 415.3 236.3 421.07 254.08 405.95 243.09 390.82 254.08 396.6 236.3 381.47 225.31 400.17 225.31 405.95 207.53"/><polygon class="cls-3" points="69.47 207.53 75.24 225.31 93.94 225.31 78.81 236.3 84.59 254.08 69.47 243.09 54.34 254.08 60.12 236.3 44.99 225.31 63.69 225.31 69.47 207.53"/><polygon class="cls-3" points="81.73 289.47 87.5 307.26 106.2 307.26 91.07 318.25 96.85 336.02 81.73 325.04 66.6 336.02 72.38 318.25 57.25 307.26 75.95 307.26 81.73 289.47"/><polygon class="cls-3" points="331.25 354.12 337.02 371.9 355.72 371.9 340.59 382.89 346.37 400.67 331.25 389.68 316.12 400.67 321.9 382.89 306.78 371.9 325.47 371.9 331.25 354.12"/><polygon class="cls-3" points="147.31 70.82 153.08 88.6 171.78 88.6 156.65 99.6 162.43 117.37 147.31 106.38 132.18 117.37 137.96 99.6 122.83 88.6 141.53 88.6 147.31 70.82"/><polygon class="cls-3" points="140.49 352.98 146.26 370.77 164.96 370.77 149.83 381.75 155.61 399.53 140.49 388.55 125.36 399.53 131.14 381.75 116.01 370.77 134.71 370.77 140.49 352.98"/></svg>