<svg id="Layer_1" data-name="Layer 1" xmlns="http://www.w3.org/2000/svg" viewBox="0 0 409.6 409.6"><defs><style>.cls-1{fill:#f0f0f0;}.cls-2{fill:#d80027;}.cls-3{fill:#0052b4;}</style></defs><title>Artboard 1</title><path class="cls-1" d="M409.6,204.8c0,113.11-91.69,204.8-204.8,204.8S0,317.91,0,204.8,91.69,0,204.8,0,409.6,91.69,409.6,204.8Zm0,0"/><path class="cls-2" d="M195.89,204.8H409.6a204.61,204.61,0,0,0-7.06-53.42H195.89Zm0,0"/><path class="cls-2" d="M195.89,98H379.54a206,206,0,0,0-47.26-53.43H195.89Zm0,0"/><path class="cls-2" d="M204.8,409.6a203.91,203.91,0,0,0,127.48-44.52h-255A203.91,203.91,0,0,0,204.8,409.6Zm0,0"/><path class="cls-2" d="M30.06,311.65H379.54a203.54,203.54,0,0,0,23-53.42H7.05a203.9,203.9,0,0,0,23,53.42Zm0,0"/><path class="cls-3" d="M94.87,32h18.66L96.17,44.59,102.8,65,85.44,52.39,68.08,65l5.73-17.63A206.26,206.26,0,0,0,34.09,91.64h6l-11,8q-2.58,4.31-5,8.75l5.28,16.24-9.84-7.15q-3.67,7.77-6.7,15.9l5.81,17.89H40.07L22.71,163.91l6.63,20.41L12,171.71l-10.4,7.55A207,207,0,0,0,0,204.8H204.8V0A203.78,203.78,0,0,0,94.87,32Zm7.93,152.34L85.44,171.71,68.08,184.32l6.63-20.41L57.35,151.3H78.81l6.63-20.4,6.63,20.4h21.46L96.17,163.91Zm-6.63-80.07,6.63,20.41L85.44,112.05,68.08,124.66l6.63-20.41L57.35,91.64H78.81l6.63-20.41,6.63,20.41h21.46Zm80.09,80.07L158.9,171.71l-17.36,12.61,6.64-20.41L130.82,151.3h21.45l6.63-20.4,6.63,20.4H187l-17.36,12.61Zm-6.63-80.07,6.63,20.41L158.9,112.05l-17.36,12.61,6.64-20.41L130.82,91.64h21.45l6.63-20.41,6.63,20.41H187Zm0-59.66L176.26,65,158.9,52.39,141.54,65l6.64-20.41L130.82,32h21.45l6.63-20.41L165.53,32H187Zm0,0"/></svg>