<svg id="Capa_1" data-name="Capa 1" xmlns="http://www.w3.org/2000/svg" viewBox="0 0 350 455.56"><defs><style>.cls-1{fill:#810f00;}.cls-2{fill:#fc0f00;}.cls-3{fill:#a8a8a7;}</style></defs><title>icon3</title><path class="cls-1" d="M320.2,57.46a160,160,0,0,0-114.08-50A172.44,172.44,0,0,0,154,15.94l-16,5.2,12.88,8a43.17,43.17,0,0,0-15.84-5h-2.24l-2.08,1a282.22,282.22,0,0,0-48,28.16c-4.24,3-8.4,6.32-13.2,10.4L54,76.9l20.4.88H69.64a115.57,115.57,0,0,0-12.88.72h-3l-2,2.24a163.15,163.15,0,0,0-33.68,57.52l-4.72,14,11.76-3A24.06,24.06,0,0,0,14,156.42l-1.2,1.52v1.92a201.47,201.47,0,0,0-1.6,63.52l2,16,11-11.6.8-.72a66.33,66.33,0,0,0-9.52,11.36l-1.84,2.8.72,3.28a253.44,253.44,0,0,0,17.52,52.64l.88,1.92,44.48,31.2-4.8-20.48a203.89,203.89,0,0,1,3.84-96.88c32-124.48,150.48-156.64,152-157l47,38.48L327,64.9Z"/><path class="cls-2" d="M48.12,407.86h261V447.7h-261Z"/><path class="cls-3" d="M72.12,368H285v39.84H72.12Z"/><path class="cls-2" d="M211.88,186.58l38.48,13.84,4.24,41.52,54.48,24.56,32-53.36L338.52,209c-25.92-41.84-56-93.28-63-112l-.72-2.08-47-38.8-4.16,1.36C204,63.7,104.84,100.74,76.2,213.22,51,312.1,93.72,357.78,102.52,365.94l2.32,2.16H260l2.32-3.84c6.56-10.8,20.48-38,7.12-58.08-11.6-17.52-66.32-95.36-82.8-118.72l-.48-.72,18-41.6Z"/><path d="M284.76,98.18l46-26.16a8,8,0,0,0,3-10.9,7.27,7.27,0,0,0-.62-.94,170.49,170.49,0,0,0-202.8-43.84L129,17A282.52,282.52,0,0,0,78,46.5C-3,104.82-5.32,185.94,6,241.3a8,8,0,0,0,.8,3.84,256,256,0,0,0,19.36,57.92,7.84,7.84,0,0,0,2.48,2.88l45.12,32A117.76,117.76,0,0,0,87,360H72.12a8,8,0,0,0-8,8v32h-16a8,8,0,0,0-8,8v40a8,8,0,0,0,8,8h261a8,8,0,0,0,8-8V408a8,8,0,0,0-8-8h-16V368a8,8,0,0,0-8-8h-11.2c7.28-14.48,15.36-38.64,2.32-58.32-11.84-17.92-67.92-97.92-80.88-116l5.76-13.28,2.88,16a8,8,0,0,0,5.12,6.08l33.68,12.16L247,242.82a8,8,0,0,0,4.64,6.48l54.48,24.56a7.79,7.79,0,0,0,1.84.48h.88a5.27,5.27,0,0,0,5-1.44,8.14,8.14,0,0,0,.8-1,7.88,7.88,0,0,0,1-1.12l32-53.36a8,8,0,0,0,0-8C333,185.14,295.4,123.22,284.76,98.18Zm-216,113a209.84,209.84,0,0,0-3.84,100.64L39,293.94a245,245,0,0,1-16.88-50.88c3.92-5.92,12.24-16,21.28-17a8.05,8.05,0,1,0-1.84-16,40.46,40.46,0,0,0-23,12.16,193.91,193.91,0,0,1,1.52-61c.56-.72,8-9.36,29.2-4.8a8.17,8.17,0,1,0,3.36-16,58.42,58.42,0,0,0-27.2,0,154.68,154.68,0,0,1,32-54.72A84,84,0,0,1,96.2,89.54a8,8,0,1,0,6.4-14.72,80.27,80.27,0,0,0-28.08-5.76,137.78,137.78,0,0,1,12.72-10A272.49,272.49,0,0,1,134,31.7a29.19,29.19,0,0,1,20.8,12.08,8,8,0,0,0,13.52-8.56,38.38,38.38,0,0,0-11.92-11.84,149.84,149.84,0,0,1,158,39.6L275.64,85,232.92,50a8,8,0,0,0-7-1.6c-1.2.32-124.32,32.88-157.36,162.8ZM301.08,415.86v24h-245v-24Zm-24-40v24h-197v-24h197ZM311,247.14l-8.88-28.56a8,8,0,1,0-15.28,4.8l9.28,28.4L262,236.58l-3.84-37a8,8,0,0,0-5.28-6.72l-34.16-12.32-6.8-37a8,8,0,0,0-15.2-1.76l-18,41.6a8,8,0,0,0,.8,8c.72,1,70.16,99.6,83.2,119.28,10.88,16.48-1.92,40.72-7.28,49.52H108c-9.12-8.48-48-51-24-144.88,27.52-108,122-144,142.08-150.08L268,99.54c9,25,52.4,96,64,113.92Z"/></svg>