<svg id="Capa_1" data-name="Capa 1" xmlns="http://www.w3.org/2000/svg" viewBox="0 0 449.29 512"><defs><style>.cls-1{fill:#a8a8a7;}.cls-2{fill:#fc0f00;}.cls-3{fill:#810f00;}</style></defs><title>icon4</title><circle class="cls-1" cx="224.64" cy="287.36" r="216.98"/><circle class="cls-2" cx="224.64" cy="287.36" r="179.76"/><path class="cls-3" d="M201.85,7.66H340.56a7.49,7.49,0,0,1,6.63,11L261.68,182a8,8,0,0,0,8.07,11.62l117.84-14.84a6.1,6.1,0,0,1,5.32,10.12L184.1,423a3.86,3.86,0,0,1-6.47-4L240.55,261a5.92,5.92,0,0,0-7.18-7.87l-96.62,28.57a9.05,9.05,0,0,1-11.41-10.64L180,25.2A22.4,22.4,0,0,1,201.85,7.66Z"/><path class="cls-2" d="M287.83,18.62,202.32,182a8,8,0,0,0,8.07,11.62l50.53-6.36a7.82,7.82,0,0,1,.76-5.26L347.19,18.62a7.49,7.49,0,0,0-6.63-11H281.2A7.49,7.49,0,0,1,287.83,18.62Z"/><path class="cls-2" d="M387.59,178.74l-52.49,6.62a6,6,0,0,1-1.54,3.5L217.44,319,177.63,419a3.86,3.86,0,0,0,6.47,4l208.81-234.1A6.1,6.1,0,0,0,387.59,178.74Z"/><path d="M321.34,84.53,354,22.18A15.15,15.15,0,0,0,340.56,0H201.85A29.89,29.89,0,0,0,172.5,23.54L161.82,71.62C66.31,99.37,0,187.41,0,287.36A224.64,224.64,0,0,0,383.49,446.2,224.69,224.69,0,0,0,321.34,84.53Zm-96.7,412.14c-115.41,0-209.31-93.9-209.31-209.31A209.61,209.61,0,0,1,158,88.88L117.86,269.43a16.71,16.71,0,0,0,21.06,19.65l93.18-27.55L170.51,416.12a11.37,11.37,0,0,0,4.64,14.07,11.64,11.64,0,0,0,6.12,1.77,11.44,11.44,0,0,0,8.55-3.9l37.27-41.78a7.66,7.66,0,0,0-11.44-10.2l-22.93,25.7,54.95-137.92a13.58,13.58,0,0,0-16.47-18.05l-96.62,28.57a1.38,1.38,0,0,1-1.75-1.63L187.47,26.86a14.64,14.64,0,0,1,14.38-11.53H340.27L254.89,178.41a15.65,15.65,0,0,0,15.82,22.78l113.71-14.32L377,195.19a7.76,7.76,0,0,0-.94,1.05l-140,156.93a7.67,7.67,0,1,0,11.44,10.21l133-149.09a172.55,172.55,0,0,1,16.24,73.07c0,94.89-77.2,172.09-172.1,172.09S52.55,382.25,52.55,287.36A171.88,171.88,0,0,1,129.37,144a7.67,7.67,0,1,0-8.5-12.76,187.2,187.2,0,0,0-83.65,156.1c0,103.34,84.08,187.42,187.42,187.42S412.07,390.7,412.07,287.36A187.76,187.76,0,0,0,391.51,202l7.12-8a13.77,13.77,0,0,0-12-22.82L373,172.85a187.65,187.65,0,0,0-50.46-45.34,7.67,7.67,0,0,0-8,13.07,171.91,171.91,0,0,1,40.55,34.53L268.79,186a.25.25,0,0,1-.3-.13.25.25,0,0,1,0-.33l45.75-87.39A209.3,209.3,0,0,1,434,287.36C434,402.77,340.06,496.67,224.64,496.67Z"/></svg>