<?xml version="1.0" encoding="utf-8"?>
<!-- Generator: Adobe Illustrator 22.1.0, SVG Export Plug-In . SVG Version: 6.00 Build 0)  -->
<svg version="1.1" id="Capa_1" xmlns="http://www.w3.org/2000/svg" xmlns:xlink="http://www.w3.org/1999/xlink" x="0px" y="0px"
	 viewBox="0 0 540.3 474" style="enable-background:new 0 0 540.3 474;" xml:space="preserve">
<style type="text/css">
	.st0{fill:#F91000;}
	.st1{fill:#800E00;}
	.st2{fill:#88868E;}
</style>
<title>icon5</title>
<g>
	<path class="st0" d="M361,378c-7.8,0-15-4.4-18.8-11.6l-12-22.7l-11.4,22.7c-3.8,7.2-11,11.6-18.8,11.6H68V96h111
		c7.8,0,15,4.4,18.8,11.6L209,130l11.2-22.4c3.8-7.1,11-11.6,18.8-11.6h233v282H361z"/>
	<path d="M466,102v270H361c-5.7,0-10.8-3.3-13.5-8.4l-17.5-33l-16.5,33c-2.7,5.1-7.8,8.4-13.5,8.4H74V102h105
		c5.7,0,10.8,3.3,13.5,8.4l16.5,33l16.5-33c2.7-5.1,7.8-8.4,13.5-8.4H466 M478,90h-12H239c-10,0-19.3,5.7-24.1,14.8l-0.1,0.1
		l-0.1,0.1l-5.8,11.5l-5.8-11.5l-0.1-0.1l-0.1-0.1C198.3,95.7,189,90,179,90H74H62v12v270v12h12h226c10,0,19.3-5.7,24.1-14.8
		l0.1-0.1l0.1-0.1l6.1-12.2l6.6,12.4c4.8,9.1,14.1,14.8,24.1,14.8h105h12v-12V102V90L478,90z"/>
</g>
<path class="st1" d="M466,102v270H361c-5.7,0-10.8-3.3-13.5-8.4l-17.5-33l-16.5,33c-2.7,5.1-7.8,8.4-13.5,8.4h-30V102H466z"/>
<g>
	<rect x="38" y="36" class="st2" width="72" height="402"/>
	<path d="M104,42v390H44V42H104 M116,30h-12H44H32v12v390v12h12h60h12v-12V42V30L116,30z"/>
</g>
<g>
	<g>
		<path class="st0" d="M44,78C24.1,78,8,61.9,8,42S24.1,6,44,6h60c19.9,0,36,16.1,36,36s-16.1,36-36,36H44z"/>
		<path d="M104,12c16.5,0,30,13.5,30,30s-13.5,30-30,30H44c-16.5,0-30-13.5-30-30s13.5-30,30-30H104 M104,0H44C20.8,0,2,18.8,2,42
			s18.8,42,42,42h60c23.2,0,42-18.8,42-42S127.2,0,104,0L104,0z"/>
	</g>
	<g>
		<path class="st0" d="M44,468c-19.9,0-36-16.1-36-36s16.1-36,36-36h60c19.9,0,36,16.1,36,36s-16.1,36-36,36H44z"/>
		<path d="M104,402c16.5,0,30,13.5,30,30s-13.5,30-30,30H44c-16.5,0-30-13.5-30-30s13.5-30,30-30H104 M104,390H44
			c-23.2,0-42,18.8-42,42s18.8,42,42,42h60c23.2,0,42-18.8,42-42S127.2,390,104,390L104,390z"/>
	</g>
</g>
<g>
	<rect x="430" y="36" class="st2" width="72" height="402"/>
	<path d="M496,42v390h-60V42H496 M508,30h-12h-60h-12v12v390v12h12h60h12v-12V42V30L508,30z"/>
</g>
<g>
	<g>
		<path class="st0" d="M436,78c-19.9,0-36-16.1-36-36s16.1-36,36-36h60c19.9,0,36,16.1,36,36s-16.1,36-36,36H436z"/>
		<path d="M496,12c16.5,0,30,13.5,30,30s-13.5,30-30,30h-60c-16.5,0-30-13.5-30-30s13.5-30,30-30H496 M496,0h-60
			c-23.2,0-42,18.8-42,42s18.8,42,42,42h60c23.2,0,42-18.8,42-42S519.2,0,496,0L496,0z"/>
	</g>
	<g>
		<path class="st0" d="M436,468c-19.9,0-36-16.1-36-36s16.1-36,36-36h60c19.9,0,36,16.1,36,36s-16.1,36-36,36H436z"/>
		<path d="M496,402c16.5,0,30,13.5,30,30s-13.5,30-30,30h-60c-16.5,0-30-13.5-30-30s13.5-30,30-30H496 M496,390h-60
			c-23.2,0-42,18.8-42,42s18.8,42,42,42h60c23.2,0,42-18.8,42-42S519.2,390,496,390L496,390z"/>
	</g>
</g>
</svg>
