<svg id="Layer_1" data-name="Layer 1" xmlns="http://www.w3.org/2000/svg" xmlns:xlink="http://www.w3.org/1999/xlink" viewBox="0 0 491.51 491"><defs><style>.cls-1{fill:none;}.cls-2{fill:#bf3c1a;}.cls-3{fill:#c65233;}.cls-4{fill:#fc0f00;}.cls-5{fill:#810f00;}.cls-6{fill:#a8a8a7;}.cls-7{clip-path:url(#clip-path);}.cls-8{fill:#d1d0d4;}</style><clipPath id="clip-path"><rect class="cls-1" x="0.51" width="491" height="491"/></clipPath></defs><title>icon2</title><path class="cls-2" d="M245.73,13.92C202,53.34,139.37,85.89,70,85.89V362.81A63.88,63.88,0,0,0,109.7,422l136.19,55.74V13.92Zm0,0"/><path class="cls-3" d="M246.05,13.92h-.16V477.73l131.22-53.66a72.08,72.08,0,0,0,44.71-66.61V85.89c-69.41,0-132-32.55-175.77-72Zm0,0"/><path class="cls-4" d="M218,375.53l-22.63-22.64,45.18-45.18L70.6,137.78V357.46a72.07,72.07,0,0,0,44.7,66.61l131.23,53.66L382.71,422a39.17,39.17,0,0,0,4.16-1.92L280.19,313.39Zm0,0"/><path class="cls-4" d="M361,194.56l22.63,22.63-62.21,62.22L426.13,384.08a62.66,62.66,0,0,0,3.68-21.27V85.89c-69.41,0-132-32.55-175.77-72h-.32A290.59,290.59,0,0,1,150.25,74.29L315.78,239.82Zm0,0"/><path class="cls-5" d="M246.05,13.92h-.16V477.73l131.22-53.66a72.08,72.08,0,0,0,44.71-66.61V85.89c-69.41,0-132-32.55-175.77-72Zm0,0"/><path class="cls-4" d="M393.19,460.3l68-67.75,22.57,22.65-68,67.75Zm0,0"/><path class="cls-6" d="M308.42,239.82,76.6,8H8.71V75.89L240.53,307.71ZM37,36.3,274.2,273.49Zm0,0"/><path class="cls-4" d="M353.68,194.56,240.53,307.71l-45.18,45.18L218,375.53l62.21-62.14-.08-.08,34-33.9,62.21-62.22Zm0,0"/><path class="cls-5" d="M314.1,279.41l-33.91,34,130,130,33.91-34Zm0,0"/><g class="cls-7"><path class="cls-8" d="M280.19,313.39l33.91-34-34,33.9Zm0,0"/><path d="M489.37,409.46l-22.64-22.63a8,8,0,0,0-11.3,0l-11.3,11.3-16.29-16.29a70.8,70.8,0,0,0,2.61-19V85.89a8,8,0,0,0-8-8C363.44,77.89,301.34,52.41,252,8a8.66,8.66,0,0,0-11,0,282.29,282.29,0,0,1-96,57.12L82.25,2.34A8,8,0,0,0,76.6,0H8.71a8,8,0,0,0-8,8V75.89a8,8,0,0,0,2.34,5.65L62.6,141.06v216.4a79.79,79.79,0,0,0,49.68,74L243.5,485.13a8.05,8.05,0,0,0,3,.59,7.87,7.87,0,0,0,3-.6l135.57-55.48,13.78,13.77-11.3,11.31a8,8,0,0,0,0,11.3l22.55,22.63a8,8,0,0,0,11.31,0l67.9-67.89a8,8,0,0,0,0-11.31ZM353.68,205.84,365,217.19,218,364.22l-11.32-11.33ZM246.53,24.42A277.72,277.72,0,0,0,414.46,93.74V362.81c0,1.8-.09,3.6-.26,5.38l-88.77-88.76L382,222.87a8,8,0,0,0,0-11.31l-22.63-22.63a8,8,0,0,0-11.31,0l-39.63,39.59L157.54,77.63a299.53,299.53,0,0,0,89-53.21ZM16.7,16H73.28L297.12,239.82l-22.64,22.64L42.66,30.65A8,8,0,0,0,31.36,42L263.17,273.77l-22.64,22.64L16.7,72.58ZM246.53,469.08,118.34,416.67a63.86,63.86,0,0,1-39.75-59.21V157.06L229.22,307.71,189.7,347.24a8,8,0,0,0,0,11.31l22.63,22.63a8,8,0,0,0,11.3,0l56.52-56.52,92.72,92.71Zm44.94-155.7,22.61-22.66L432.82,409.44,410.21,432.1ZM415.79,471.72l-11.26-11.31,56.52-56.59,11.32,11.32Zm0,0"/></g></svg>