<svg xmlns="http://www.w3.org/2000/svg" viewBox="0 0 512 494.9"><defs><style>.cls-1{fill:#fc0f00;}.cls-2{fill:#810f00;}.cls-3{fill:#a8a8a7;}</style></defs><title>icon1</title><g id="Layer_2" data-name="Layer 2"><g id="Layer_1-2" data-name="Layer 1"><path class="cls-1" d="M504,238.9a64.13,64.13,0,1,1-64.13-64.14A64.13,64.13,0,0,1,504,238.9ZM439.85,209a29.93,29.93,0,1,0,29.93,29.93A29.93,29.93,0,0,0,439.85,209Z"/><path class="cls-1" d="M72.15,174.76A64.14,64.14,0,1,1,8,238.9,64.14,64.14,0,0,1,72.15,174.76ZM42.22,238.9A29.93,29.93,0,1,0,72.15,209,29.93,29.93,0,0,0,42.22,238.9Z"/><path class="cls-2" d="M277.38,432.7V333H234.62V432.7a162.79,162.79,0,0,0-101.24,54.18H378.62A162.79,162.79,0,0,0,277.38,432.7Z"/><path class="cls-2" d="M418.47,97.8H93.53v89.79a162.47,162.47,0,0,0,324.94,0Z"/><rect class="cls-2" x="67.87" y="97.8" width="376.25" height="47.03"/><polygon class="cls-3" points="324.41 226.07 273.1 226.07 256 179.04 238.9 226.07 187.59 226.07 230.35 260.04 217.52 307.07 256 277.14 294.48 307.07 281.65 260.04 324.41 226.07"/><path class="cls-1" d="M234.62,333V432.7a162.79,162.79,0,0,0-101.24,54.18H256V333Z"/><path class="cls-1" d="M93.53,97.8v89.79A162,162,0,0,0,256,350.06V97.8Z"/><rect class="cls-1" x="67.87" y="97.8" width="188.13" height="47.03"/><polygon class="cls-3" points="238.9 226.07 187.59 226.07 230.35 260.04 217.52 307.07 256 277.14 256 179.04 238.9 226.07"/><path d="M324.42,306.85A8,8,0,0,1,320.21,292,123.92,123.92,0,0,0,352,263.84a8,8,0,1,1,12.55,10A141,141,0,0,1,354,285.59a138.79,138.79,0,0,1-25.39,20.07A8,8,0,0,1,324.42,306.85Z"/><path d="M376.06,246.92a8,8,0,0,1-7.38-11.16,122.55,122.55,0,0,0,9.71-48.17,8,8,0,1,1,16,0,138.45,138.45,0,0,1-11,54.44A8,8,0,0,1,376.06,246.92Z"/><path class="cls-3" d="M277.38,21.38H264V8a8,8,0,1,0-16,0V21.38H234.62a8,8,0,0,0,0,16H248V50.77a8,8,0,1,0,16,0V37.41h13.36a8,8,0,0,0,0-16Z"/><path class="cls-3" d="M397.09,21.38H383.73V8a8,8,0,1,0-16,0V21.38H354.34a8,8,0,1,0,0,16H367.7V50.77a8,8,0,1,0,16,0V37.41h13.36a8,8,0,1,0,0-16Z"/><path class="cls-3" d="M166.21,21.38H152.85V8a8,8,0,1,0-16,0V21.38H123.46a8,8,0,1,0,0,16h13.36V50.77a8,8,0,1,0,16,0V37.41h13.36a8,8,0,1,0,0-16Z"/><path d="M439.85,166.75A71.82,71.82,0,0,0,426.49,168V152.85h17.64a8,8,0,0,0,8-8v-47a8,8,0,0,0-8-8H67.87a8,8,0,0,0-8,8v47a8,8,0,0,0,8,8H85.51V168A72.15,72.15,0,1,0,121,292a170.24,170.24,0,0,0,105.61,63.57v70.28a170.9,170.9,0,0,0-99.25,55.78,8,8,0,0,0,6,13.31H378.62a8,8,0,0,0,6-13.31,170.9,170.9,0,0,0-99.25-55.78V355.53A170.24,170.24,0,0,0,391,292a72.14,72.14,0,1,0,48.85-125.21ZM422.16,226a21.94,21.94,0,1,1-4.1,14.87C419.63,236,421,231,422.16,226ZM75.89,105.82H436.11v31H75.89ZM89.84,226c1.15,5.06,2.53,10,4.1,14.87A21.86,21.86,0,1,1,89.84,226ZM72.15,295A56.12,56.12,0,1,1,85.51,184.4v3.19c0,5.37.27,10.74.77,16.08a37.94,37.94,0,1,0,16.13,58.2,169.91,169.91,0,0,0,9.3,16.81A55.88,55.88,0,0,1,72.15,295Zm197.21,63.07V432.7a8,8,0,0,0,7,7.95,154.58,154.58,0,0,1,83.09,38.21H152.57a154.58,154.58,0,0,1,83.09-38.21,8,8,0,0,0,7-7.95V358.08Zm-13.36-16A154.4,154.4,0,0,1,128.43,275h0a153.49,153.49,0,0,1-18.77-37.61A156.63,156.63,0,0,1,105.14,221h0a157,157,0,0,1-3.59-33.38V152.85H410.46v34.74a156.39,156.39,0,0,1-3.6,33.38h0a156.63,156.63,0,0,1-4.51,16.35,153.85,153.85,0,0,1-18.77,37.61h0A154.4,154.4,0,0,1,256,342.05Zm183.85-47a55.88,55.88,0,0,1-39.56-16.33,169.91,169.91,0,0,0,9.3-16.81,38,38,0,1,0,16.13-58.2c.5-5.34.77-10.71.77-16.08V184.4A56.11,56.11,0,1,1,439.85,295Z"/><path d="M324.41,218.05H278.72L263.53,176.3a8,8,0,0,0-15.06,0l-15.19,41.75H187.59a8,8,0,0,0-5,14.3L221.22,263,209.79,305a8,8,0,0,0,12.65,8.44L256,287.3l33.56,26.1A8,8,0,0,0,302.21,305L290.78,263l38.62-30.68a8,8,0,0,0-5-14.3Zm-47.74,35.71a8,8,0,0,0-2.75,8.39l6.5,23.83-19.5-15.17a8,8,0,0,0-9.84,0L231.58,286l6.5-23.83a8,8,0,0,0-2.75-8.39l-24.76-19.67H238.9a8,8,0,0,0,7.53-5.28L256,202.5l9.57,26.31a8,8,0,0,0,7.53,5.28h28.33Z"/></g></g></svg>