<svg id="Layer_1" data-name="Layer 1" xmlns="http://www.w3.org/2000/svg" xmlns:xlink="http://www.w3.org/1999/xlink" viewBox="0 0 406.94 408.72"><defs><style>.cls-1{fill:none;}.cls-2{fill:#811810;}.cls-3{fill:#e5281e;}.cls-4{clip-path:url(#clip-path);}.cls-5{fill:#010101;}.cls-6{fill:#a7a7a6;}</style><clipPath id="clip-path"><rect class="cls-1" x="1.03" y="-0.6" width="404.88" height="409.92"/></clipPath></defs><title>legacy</title><path class="cls-2" d="M203.25,396.37a115.6,115.6,0,1,1,115.6-115.61,115.74,115.74,0,0,1-115.6,115.61Z"/><path class="cls-3" d="M203.25,376.77a96,96,0,1,1,96-96,96.12,96.12,0,0,1-96,96Z"/><g class="cls-4"><path class="cls-5" d="M405.39,1.83a7,7,0,0,0-5.92-3.27H296.3a7,7,0,0,0-6.31,4L217.66,153a129.78,129.78,0,0,0-28.82,0L116.51,2.53a7,7,0,0,0-6.31-4H7A7,7,0,0,0,.72,8.6l96.15,200a128.6,128.6,0,1,0,212.76,0l96.15-200A7,7,0,0,0,405.39,1.83ZM106.45,196.2,18.17,12.56H51.65l78.21,162.67A129.58,129.58,0,0,0,106.45,196.2Zm211.4,84.56a114.6,114.6,0,1,1-114.6-114.6A114.73,114.73,0,0,1,317.85,280.76ZM232,155.42,300.7,12.56h35.42l-74,153.9A128,128,0,0,0,232,155.42Zm42.22,18.16,77.41-161h36.69L300.05,196.2A130,130,0,0,0,274.24,173.58Zm-132.42-5.77L67.18,12.56H105.8l68.68,142.86A127.9,127.9,0,0,0,141.82,167.81Z"/></g><path d="M242,297.16,262.66,277a12.4,12.4,0,0,0-6.88-21.15l-28.61-4.16-12.8-25.93a12.4,12.4,0,0,0-22.24,0l-12.8,25.93-28.61,4.16A12.4,12.4,0,0,0,143.84,277l20.71,20.19-4.89,28.5a12.4,12.4,0,0,0,18,13.07l25.6-13.46,25.59,13.46a12.47,12.47,0,0,0,5.79,1.44,12.43,12.43,0,0,0,12.21-14.51Zm-12.36-1.08L235,327.69a.34.34,0,0,1-.16.39.35.35,0,0,1-.42,0L206,313.18a6.06,6.06,0,0,0-5.58,0l-28.39,14.93a.35.35,0,0,1-.42,0,.34.34,0,0,1-.16-.39l5.42-31.61a6,6,0,0,0-1.72-5.31l-23-22.39a.33.33,0,0,1-.1-.41c.08-.24.21-.26.32-.27l31.74-4.61a6,6,0,0,0,4.52-3.29L202.89,231a.4.4,0,0,1,.72,0L217.8,259.8a6,6,0,0,0,4.52,3.29l31.74,4.61c.11,0,.24,0,.32.27a.33.33,0,0,1-.1.41l-23,22.39a6,6,0,0,0-1.72,5.31Zm0,0"/><path d="M111.49,285a6,6,0,1,0-4.24,1.76,6,6,0,0,0,4.24-1.76Zm0,0"/><path d="M295,276.52a6,6,0,1,0,4.24-1.76,6,6,0,0,0-4.24,1.76Zm0,0"/><path d="M203.25,370.76a6,6,0,1,0,4.24,1.76,6,6,0,0,0-4.24-1.76Zm0,0"/><path d="M203.25,190.76A6,6,0,1,0,199,189a6,6,0,0,0,4.24,1.76Zm0,0"/><path d="M135.37,218.88a6,6,0,1,0-4.24-1.76,6,6,0,0,0,4.24,1.76Zm0,0"/><path d="M271.13,342.64a6,6,0,1,0,4.24,1.76,6,6,0,0,0-4.24-1.76Zm0,0"/><path d="M135.36,342.64a6,6,0,0,0,0,12,6,6,0,1,0,0-12Zm0,0"/><path d="M271.13,218.88a6,6,0,1,0-4.24-1.76,6,6,0,0,0,4.24,1.76Zm0,0"/><path d="M120.56,317.5a6,6,0,1,0-1.76,4.24,6,6,0,0,0,1.76-4.24Zm0,0"/><path d="M285.94,244a6,6,0,1,0,1.76-4.25,6,6,0,0,0-1.76,4.25Zm0,0"/><path d="M240,363.46a6,6,0,1,0,4.24,1.75,6,6,0,0,0-4.24-1.75Zm0,0"/><path d="M166.52,198.07a6,6,0,1,0-4.25-1.75,6.08,6.08,0,0,0,4.25,1.75Zm0,0"/><path d="M114.56,250a6,6,0,1,0-4.24-1.76,6.07,6.07,0,0,0,4.24,1.76Zm0,0"/><path d="M291.94,311.5a6,6,0,1,0,4.25,1.76,6,6,0,0,0-4.25-1.76Zm0,0"/><path d="M166.51,363.46a6,6,0,1,0,4.25,1.75,6.06,6.06,0,0,0-4.25-1.75Zm0,0"/><path d="M240,198.07a6,6,0,1,0-4.24-1.75,6,6,0,0,0,4.24,1.75Zm0,0"/><path d="M113.42,304.15a6,6,0,1,0-4.24,1.75,6.05,6.05,0,0,0,4.24-1.75Zm0,0"/><path d="M293.08,257.38a6,6,0,1,0,4.25-1.76,6.07,6.07,0,0,0-4.25,1.76Zm0,0"/><path d="M222.39,368.84a6,6,0,1,0,6,6,6,6,0,0,0-6-6Zm0,0"/><path d="M184.11,192.69a6,6,0,1,0-4.24-1.76,6.05,6.05,0,0,0,4.24,1.76Zm0,0"/><path d="M123.2,233.78A6,6,0,1,0,119,232a6,6,0,0,0,4.24,1.76Zm0,0"/><path d="M283.3,327.75A6,6,0,1,0,287.55,338a6,6,0,0,0-4.25-10.25Zm0,0"/><path d="M150.27,354.82a6,6,0,1,0,4.24,1.75,6.07,6.07,0,0,0-4.24-1.75Zm0,0"/><path d="M256.24,206.71a6,6,0,0,0,6-6,6,6,0,0,0-6-6,6,6,0,0,0,0,12Zm0,0"/><path d="M127.91,330.2a6,6,0,1,0,1.75,4.24,6.05,6.05,0,0,0-1.75-4.24Zm0,0"/><path d="M278.59,222.84a6,6,0,1,0,4.25-1.76,6,6,0,0,0-4.25,1.76Zm0,0"/><path d="M256.93,354.36a6,6,0,0,0,0,12,6,6,0,1,0,0-12Zm0,0"/><path d="M149.56,207.18a6,6,0,1,0-4.23-1.76,6.08,6.08,0,0,0,4.23,1.76Zm0,0"/><path d="M109,268.44a6,6,0,1,0,0-12,6,6,0,1,0,0,12Zm0,0"/><path d="M297.49,293.08a6,6,0,1,0,4.24,1.76,6.05,6.05,0,0,0-4.24-1.76Zm0,0"/><path d="M184.93,369a6,6,0,0,0,0,12,6,6,0,0,0,6-6,6,6,0,0,0-6-6Zm0,0"/><path d="M221.57,192.52a6,6,0,1,0-4.24-1.75,6.06,6.06,0,0,0,4.24,1.75Zm0,0"/><path class="cls-3" d="M300.07,11.56h37.64L262.58,167.83a126.81,126.81,0,0,0-32-11.71Z"/><path class="cls-3" d="M175.93,156.12a126.83,126.83,0,0,0-34.55,13.08L65.59,11.56h40.84Z"/><path class="cls-6" d="M16.57,11.56H52.28l78.85,164A128.86,128.86,0,0,0,106.21,198Z"/><path class="cls-6" d="M300.29,198A128.59,128.59,0,0,0,273,173.94L351,11.56h38.91Z"/><path class="cls-2" d="M229.59,296.08,235,327.69a.33.33,0,0,1-.16.39.35.35,0,0,1-.42,0L206,313.19a6,6,0,0,0-5.58,0l-28.39,14.92a.35.35,0,0,1-.42,0,.33.33,0,0,1-.16-.39l5.42-31.61a6,6,0,0,0-1.72-5.31l-23-22.39a.33.33,0,0,1-.1-.41.35.35,0,0,1,.32-.27l31.74-4.61a6,6,0,0,0,4.52-3.28L202.89,231a.4.4,0,0,1,.72,0l14.19,28.77a6,6,0,0,0,4.52,3.28l31.73,4.61a.36.36,0,0,1,.33.27.33.33,0,0,1-.1.41l-23,22.39a6,6,0,0,0-1.72,5.31Z"/></svg>