<svg id="Capa_1" data-name="Capa 1" xmlns="http://www.w3.org/2000/svg" viewBox="0 0 396.26 512"><defs><style>.cls-1{fill:#a8a8a7;}.cls-2{fill:#810f00;}.cls-3{fill:#fc0f00;}.cls-4{fill:#1d1d1f;}</style></defs><title>main</title><path class="cls-1" d="M198.13,8.27,7.5,100V239.79C7.5,357.07,82.63,462,196,503.19l2.12.77,2.12-.77C313.63,462,388.76,357.07,388.76,239.79V100Z"/><polygon class="cls-2" points="198.13 53.91 47.49 128.75 47.49 241.01 198.13 241.01 198.13 53.91"/><polygon class="cls-3" points="198.13 241.01 198.13 53.91 348.77 128.75 348.77 241.01 198.13 241.01"/><path class="cls-2" d="M198.13,241V458.33A232.08,232.08,0,0,0,348.77,241Z"/><path class="cls-3" d="M198.13,241V458.33h0A232.07,232.07,0,0,1,47.49,241Z"/><rect class="cls-4" x="107.43" y="265.52" width="15" height="15"/><rect class="cls-4" x="132.43" y="265.52" width="15" height="15"/><rect class="cls-4" x="157.44" y="265.52" width="15" height="15"/><path class="cls-4" d="M198.13,0,0,95.34V239.85A281.36,281.36,0,0,0,53.14,404.46C87.87,453,136.39,489.59,193.45,510.3l4.68,1.7,4.68-1.7C259.87,489.59,308.39,453,343.12,404.46a281.43,281.43,0,0,0,53.14-164.61V95.34ZM381.25,239.85c0,110.72-70.23,211.47-175.62,253.32V478.39h-15v14.78C85.23,451.32,15,350.57,15,239.85V104.77L190.63,20.26V35.12h15V20.26l175.62,84.51V239.85Z"/><path class="cls-4" d="M40,124.15V241.07A239.59,239.59,0,0,0,195.5,465.41l2.63,1,2.63-1A239.59,239.59,0,0,0,356.27,241.07V124.15L198.13,45.58ZM341.27,241.07c0,92.17-57.4,175.91-143.14,209.28C112.39,417,55,333.24,55,241.07V133.45L198.13,62.34l143.14,71.11Z"/><rect class="cls-4" x="190.63" y="73.97" width="15" height="364.41"/><rect class="cls-4" x="218.14" y="233.57" width="110.63" height="15"/><rect class="cls-4" x="67.5" y="233.57" width="110.63" height="15"/></svg>