<svg xmlns="http://www.w3.org/2000/svg" width="16.156" height="20.438" viewBox="0 0 16.156 20.438">
  <metadata><?xpacket begin="﻿" id="W5M0MpCehiHzreSzNTczkc9d"?>
<x:xmpmeta xmlns:x="adobe:ns:meta/" x:xmptk="Adobe XMP Core 5.6-c142 79.160924, 2017/07/13-01:06:39        ">
   <rdf:RDF xmlns:rdf="http://www.w3.org/1999/02/22-rdf-syntax-ns#">
      <rdf:Description rdf:about=""/>
   </rdf:RDF>
</x:xmpmeta>
                                                                                                    
                                                                                                    
                                                                                                    
                                                                                                    
                                                                                                    
                                                                                                    
                                                                                                    
                                                                                                    
                                                                                                    
                                                                                                    
                                                                                                    
                                                                                                    
                                                                                                    
                                                                                                    
                                                                                                    
                                                                                                    
                                                                                                    
                                                                                                    
                                                                                                    
                                                                                                    
                           
<?xpacket end="w"?></metadata>
<defs>
    <style>
      .cls-1 {
        fill: #acacac;
        fill-rule: evenodd;
      }
    </style>
  </defs>
  <path class="cls-1" d="M21.725,183.175a9.785,9.785,0,0,0,.119,1.447h3.609v-5.183a15.7,15.7,0,0,1-3.728,1.247v2.489Zm3.728,7.665v-5.02H22.1A9.871,9.871,0,0,0,25.452,190.84Zm1.242-6.218H30.3a9.583,9.583,0,0,0,.119-1.447v-2.489a15.721,15.721,0,0,1-3.728-1.247v5.183Zm6.835-7.226a12.982,12.982,0,0,1-7.456-2.4,13.126,13.126,0,0,1-7.455,2.4H18v5.779a13.437,13.437,0,0,0,7.8,12.132l0.278,0.134,0.278-.134a13.414,13.414,0,0,0,7.8-12.132V177.4H33.529Zm-1.864,5.779a11.111,11.111,0,0,1-5.253,9.371l-0.34.214-0.339-.213a11.047,11.047,0,0,1-5.251-9.372v-3.492L21,179.6a14.431,14.431,0,0,0,4.761-1.668l0.312-.176,0.314,0.176a14.414,14.414,0,0,0,4.761,1.668l0.517,0.085v3.492Zm-4.971,7.665a9.779,9.779,0,0,0,3.352-5.02H26.694v5.02Z" transform="translate(-18 -175)"/>
</svg>
