<svg id="Capa_1" data-name="Capa 1" xmlns="http://www.w3.org/2000/svg" viewBox="0 0 512 440"><defs><style>.cls-1{fill:#fc0f00;}.cls-2{fill:#a8a8a7;}.cls-3{fill:#810f00;}</style></defs><title>mounts</title><path class="cls-1" d="M488.47,123.81h-9.39a16,16,0,0,1-11.34-4.7l-1.94-1.94a32.06,32.06,0,0,0-22.68-9.4H360.21l44.14,63.07-20.09,1.07v66.81a24,24,0,0,1-26.74,23.9L227.17,248a80.94,80.94,0,0,0-91.41,80.26V329c0,19.09-10.38,37-27.44,45.58a52,52,0,0,1-20.66,5.65c-26.32,1.37-56.11-19.56-56.11-45.58V340a72.15,72.15,0,1,0,144.29.25v0a40.07,40.07,0,0,1,28.79-38.45,30.52,30.52,0,0,1,18.11.66L264,316.19l56.59,25.16a80.12,80.12,0,0,0,32.56,6.91h50a16.06,16.06,0,0,0,9.32-3l11-7.83a64.12,64.12,0,0,0,22.27-76l-27.9-77.36a32.07,32.07,0,0,0,15.2,3.86h7.35v-16a16,16,0,0,1,16-16h48.1v-16A16,16,0,0,0,488.47,123.81Z"/><path class="cls-2" d="M322.87,218.41a48.09,48.09,0,0,1-18.77-38.12v-64.5L7.5,11.58s93.69,60.62,98.2,126.25C177.17,157.54,174.84,222,174.84,222s82.51-22.11,145.65,37.11a73.9,73.9,0,0,0,42.26,20l34.13,3.79a3.21,3.21,0,0,0,2.31-5.74Z"/><polygon class="cls-1" points="31.55 284.13 7.5 260.08 31.55 195.95 55.6 260.08 31.55 284.13"/><path class="cls-3" d="M445.72,261.44l-26.51-73.5a17.94,17.94,0,0,0-16.88,24L423.1,269.6l.14.39.16.38a40.06,40.06,0,0,1-13.91,47.49l-2.15,1.54a16,16,0,0,0-31,4.81H353.18a56.13,56.13,0,0,1-22.8-4.84l-100-39.75a56.8,56.8,0,0,0-18-3,51.36,51.36,0,0,0-14.46,2.05,64.43,64.43,0,0,0-46.09,61.74v.73a46.85,46.85,0,0,1-46.72,47c-6.07,0-11.08,0-13.66.05a59.53,59.53,0,0,1-59.86-59.52v16.38a67.18,67.18,0,0,0,67.34,67.18,72.15,72.15,0,0,0,77-72v0a40.07,40.07,0,0,1,28.79-38.45,29.54,29.54,0,0,1,14.94-.17l-19.68,78.72L226,364.68a56.1,56.1,0,0,0,21.31-23l13.31-26.61,3.44,1.14,56.59,25.16a80.29,80.29,0,0,0,32.56,6.91h23.59a32,32,0,0,0,8.87,17.4L398.91,379a32,32,0,0,1,9.4,22.67V347.37a16.08,16.08,0,0,0,4.18-2.1l11-7.83A64.12,64.12,0,0,0,445.72,261.44Z"/><path d="M510.5,155.87v-16a22.05,22.05,0,0,0-22-22H474.92L470,112.92a37.82,37.82,0,0,0-26.92-11.15h-107a6,6,0,0,0,0,12h20.93l14,20.07H360.21a6,6,0,0,0,0,12h19.32l14.05,20.06h-9.32a6,6,0,0,0,0,12h18l.45.51a46.4,46.4,0,0,0,17.54,12.28l1.63.64-.89,1.51a21.87,21.87,0,0,0-1.44,19.31l20.6,51.52A58,58,0,0,1,420,332.55l-5.66,4.05V316.19a6,6,0,0,0-12,0v57.66l-12.43-12.43A25.87,25.87,0,0,1,382.24,343v-26.8a6,6,0,0,0-12,0v26.07H353.17a73.72,73.72,0,0,1-30.12-6.39l-54.07-24,.57-1.35a6,6,0,0,0-10.9-5L241.91,339a50.12,50.12,0,0,1-19,20.56l-13.65,8.19,20.54-82.15a6,6,0,1,0-11.64-2.91l-2.88,11.49-1.12,0a46,46,0,0,0-44.28,46A66.12,66.12,0,0,1,50.35,379.31l-4.79-6.51,6.81,4.36a58.08,58.08,0,0,0,89.39-48.94,74.92,74.92,0,0,1,84.63-74.31l93,12.12a6,6,0,0,0,5.24-10c-32.81-36.41-72.31-45.28-99.68-46.31a163,163,0,0,0-21.94.65l-4.89.48,100-82.37v51.78a54.46,54.46,0,0,0,21.11,42.88l85.44,65.72a6,6,0,0,0,7.31-9.52l-21.7-16.69V204a6,6,0,0,0-12,0v49.48l-51.73-39.8a42.35,42.35,0,0,1-16.43-33.37V115.79a6,6,0,0,0-4-5.66L9.49,5.92a6,6,0,0,0-5.25,10.7c.85.55,85.11,55.81,94.72,115.22l.25,1.55-4.22.49a6,6,0,0,0,1.37,11.92l10.91-1.26.3.09c54.33,16.73,60.59,60.9,61.22,74l0,.75-4.81,4A6,6,0,0,0,167.83,234a6.05,6.05,0,0,0,3.81-1.37l6.58-5.42.29-.09a150.19,150.19,0,0,1,46.5-5.38c28.23,1.17,53.15,10.16,74.07,26.71l4.25,3.37L227.94,242a86.93,86.93,0,0,0-98.18,86.21,46.11,46.11,0,0,1-92.21,0v-41.6l22.29-22.3A6,6,0,0,0,61.21,258l-24-64.13a6,6,0,0,0-11.24,0L1.88,258a6,6,0,0,0,1.38,6.35l22.29,22.3v53.62a78.15,78.15,0,1,0,156.29,0,34,34,0,0,1,28.1-33.53l2.27-.4-18.14,72.58a6,6,0,0,0,.45,4.14l19.71,39.41H203.9a6,6,0,0,0,0,12h24a6,6,0,0,0,4.06-1.58,23.07,23.07,0,0,1,32,0,6,6,0,0,0,8.11-8.85,35.69,35.69,0,0,0-24.1-9.59,35.12,35.12,0,0,0-19.47,6l-1.42.94-19.35-38.71,21.31-12.78a62,62,0,0,0,23.59-25.49l10.9-21.79,54.64,24.28a85.59,85.59,0,0,0,35,7.43h18.75l.35,1a37.63,37.63,0,0,0,9.12,14.63l13.28,13.28a25.87,25.87,0,0,1,7.64,18.43v20.8h-14a6,6,0,0,0,0,12h24.05a6,6,0,0,0,4.05-1.58,23.06,23.06,0,0,1,32,0,6,6,0,1,0,8.11-8.84,35.69,35.69,0,0,0-24.09-9.6,35.07,35.07,0,0,0-15.87,3.87l-2.18,1.12v-68l12.63-9a70,70,0,0,0,24.36-83.11l-20.61-51.52A10,10,0,0,1,440,193.94h48.47a6,6,0,0,0,0-12h-42.1v-10a10,10,0,0,1,10-10h34.09v2a6,6,0,0,0,12,0v-2h2A6,6,0,0,0,510.5,155.87Zm-331,51.83a95.87,95.87,0,0,0-7-22.85A90.8,90.8,0,0,0,135.76,144L132,141.69l76.64-8.84a6,6,0,0,0,3-10.66,5.94,5.94,0,0,0-4.41-1.26L111.12,132l-.22-1.43c-5.84-37.81-37.59-72.78-63.19-95.46L42,30.05l235.55,82.77-38.26,4.41a6,6,0,0,0,1.38,11.92l43.94-5.07L180,210.23ZM14.47,258.57,31.55,213l17.07,45.53L31.55,275.64Zm484-108.7H456.4a22.06,22.06,0,0,0-22,22v9.95l-1.7-.22a34.18,34.18,0,0,1-23.4-14.23l-15.09-21.56h14.13a6,6,0,0,0,0-12H385.78l-14-20.07h71.39a25.91,25.91,0,0,1,18.43,7.64l6.64,6.64a6,6,0,0,0,4.25,1.76h16a10,10,0,0,1,10,10Z"/><path d="M448.47,124.32h-.08a7.54,7.54,0,1,0,.08,0Z"/></svg>