<svg xmlns="http://www.w3.org/2000/svg" width="16.156" height="17.875" viewBox="0 0 16.156 17.875">
  <metadata><?xpacket begin="﻿" id="W5M0MpCehiHzreSzNTczkc9d"?>
<x:xmpmeta xmlns:x="adobe:ns:meta/" x:xmptk="Adobe XMP Core 5.6-c142 79.160924, 2017/07/13-01:06:39        ">
   <rdf:RDF xmlns:rdf="http://www.w3.org/1999/02/22-rdf-syntax-ns#">
      <rdf:Description rdf:about=""/>
   </rdf:RDF>
</x:xmpmeta>
                                                                                                    
                                                                                                    
                                                                                                    
                                                                                                    
                                                                                                    
                                                                                                    
                                                                                                    
                                                                                                    
                                                                                                    
                                                                                                    
                                                                                                    
                                                                                                    
                                                                                                    
                                                                                                    
                                                                                                    
                                                                                                    
                                                                                                    
                                                                                                    
                                                                                                    
                                                                                                    
                           
<?xpacket end="w"?></metadata>
<defs>
    <style>
      .cls-1 {
        fill: #acacac;
        fill-rule: evenodd;
      }
    </style>
  </defs>
  <path class="cls-1" d="M29.6,276.091a0.819,0.819,0,0,0,.75-0.513,7.78,7.78,0,0,0,.229-4.174,2.408,2.408,0,0,1,2.131-2.886,0.483,0.483,0,0,1,.35.153l0.277,0.293a0.241,0.241,0,0,0,.175.077H33.9a0.254,0.254,0,0,1,.247.261v0.277h0a0.508,0.508,0,0,1-.486.523c-0.135,0-.3,0-0.5,0a1.191,1.191,0,0,0-1.368,1.237,2.393,2.393,0,0,0,.048.443c0.268,1.385.575,2.582,0.707,3.844a11.314,11.314,0,0,1,.034,2.074,5.28,5.28,0,0,1-1.047,2.927L30.908,283a1.2,1.2,0,0,0-.029.467l0.241,1.783,0.561,0.2a0.564,0.564,0,0,1,.346.365l0.067,0.212a0.286,0.286,0,0,1-.259.38h-2.21a0.553,0.553,0,0,1-.528-0.425l-0.575-2.227a4.221,4.221,0,0,1-.135-1.063v-0.374a12.62,12.62,0,0,1-3.251-.042L24.811,284.1l0.273,1.154,0.561,0.2a0.564,0.564,0,0,1,.345.365l0.067,0.212a0.286,0.286,0,0,1-.259.38H23.611a0.552,0.552,0,0,1-.527-0.425l-0.576-2.227a4.253,4.253,0,0,1-.135-1.063v-0.958l-0.1-.028c-1.5-.528-2.7-0.282-3.087.445-0.4.752-.168,1.6,1.321,2.693l0.028,0.023,0.007,0.006,0.018,0.017,0.006,0.007a0.161,0.161,0,0,1,.018.023l0,0a0.158,0.158,0,0,1,.012.019l0,0.006a0.208,0.208,0,0,1,.01.022h0a0.192,0.192,0,0,1-.265.233C19.86,284.994,18,283.81,18,282.079,18,279.544,23.242,276.162,29.6,276.091Z" transform="translate(-18 -268.531)"/>
</svg>
