<svg xmlns="http://www.w3.org/2000/svg" width="17.031" height="15.344" viewBox="0 0 17.031 15.344">
  <metadata><?xpacket begin="﻿" id="W5M0MpCehiHzreSzNTczkc9d"?>
<x:xmpmeta xmlns:x="adobe:ns:meta/" x:xmptk="Adobe XMP Core 5.6-c142 79.160924, 2017/07/13-01:06:39        ">
   <rdf:RDF xmlns:rdf="http://www.w3.org/1999/02/22-rdf-syntax-ns#">
      <rdf:Description rdf:about=""/>
   </rdf:RDF>
</x:xmpmeta>
                                                                                                    
                                                                                                    
                                                                                                    
                                                                                                    
                                                                                                    
                                                                                                    
                                                                                                    
                                                                                                    
                                                                                                    
                                                                                                    
                                                                                                    
                                                                                                    
                                                                                                    
                                                                                                    
                                                                                                    
                                                                                                    
                                                                                                    
                                                                                                    
                                                                                                    
                                                                                                    
                           
<?xpacket end="w"?></metadata>
<defs>
    <style>
      .cls-1 {
        fill: #acacac;
        fill-rule: evenodd;
      }
    </style>
  </defs>
  <path id="Forma_1" data-name="Forma 1" class="cls-1" d="M29.472,323.447a4.109,4.109,0,0,0-7.041,0l-2.116,3.414a2.587,2.587,0,0,0,.2,3,2.384,2.384,0,0,0,2.833.669h0a6.272,6.272,0,0,1,5.209,0,2.382,2.382,0,0,0,2.832-.669,2.585,2.585,0,0,0,.2-3Zm-8.745-.329a2.173,2.173,0,0,0,.966-2.838,2.061,2.061,0,0,0-2.557-1.437,2.173,2.173,0,0,0-.965,2.838A2.06,2.06,0,0,0,20.727,323.118Zm3.822-2.138a2.839,2.839,0,0,0,0-5.573A2.839,2.839,0,0,0,24.549,320.98Zm4.279,0.828a2.514,2.514,0,0,0,3.028-1.895,2.636,2.636,0,0,0-1.328-3.393,2.514,2.514,0,0,0-3.028,1.9A2.637,2.637,0,0,0,28.828,321.808Zm5.452-.419a2.033,2.033,0,0,0-2.836.681,2.193,2.193,0,0,0,.2,3,2.032,2.032,0,0,0,2.835-.68A2.195,2.195,0,0,0,34.279,321.389Z" transform="translate(-17.969 -315.406)"/>
</svg>
