<svg id="Layer_1" data-name="Layer 1" xmlns="http://www.w3.org/2000/svg" viewBox="0 0 452.35 512"><defs><style>.cls-1{fill:#fc0f00;}.cls-2{fill:#a8a8a7;}.cls-3{fill:#810f00;}</style></defs><title>pets</title><path class="cls-1" d="M444.31,257.12c0-52.87-28.29-101.28-73.17-139.69,9.75-45.2,9.27-107.14,9.27-107.14-30.26,7.57-59.13,10-74.3,29.19-12.63-9.37-150.69-8.09-164,3.28-14.37-21.3-44.75-24.48-76.69-32.47,0,0-.52,63.09,10.37,107.14a229.3,229.3,0,0,0-28.16,30.63c-25,32.76-39.61,71-39.61,109.06v51.66L31,297.3l-7,55.92,30-10v45.93l23-11.48s8.58,34.3,37.14,43.61a29.47,29.47,0,0,1,20.18,23.48c0,.23.06.44.08.64,3.84,32.11,26.22,58.55,58.55,58.55h66.59c32.34,0,54.71-26.44,58.55-58.55,0-.2.05-.41.09-.64a29.44,29.44,0,0,1,20.17-23.48c28.56-9.31,37.14-43.61,37.14-43.61l23,11.48V343.23l30,10-7-55.92,23,11.48V257.12Z"/><path class="cls-2" d="M444.31,257.12a147.13,147.13,0,0,0-1.59-21.46h-37.6l-10.73,53.66-21.46-10.74L351.46,343,330,321.51l-21.46,53.66-22.13-20.11-6.08-.07c-3.43,10.48-8.23,22.67-8.23,22.68v-1.5a21.46,21.46,0,0,0-21.47-21.46H201.72a21.46,21.46,0,0,0-21.47,21.46v1.5s-5.19-13.2-8.64-23.93l-2.59,0-32.19,21.46L126.1,332.24,104.63,343l-19-64L64.21,289.67,51,235.66H9.57a154.53,154.53,0,0,0-1.52,21.46v51.66L31,297.3l-7,55.92,30-10v45.93l23-11.48s8.58,34.3,37.14,43.61a29.47,29.47,0,0,1,20.18,23.48c0,.23.06.44.08.64,3.84,32.11,26.22,58.55,58.55,58.55h66.59c32.34,0,54.71-26.44,58.55-58.55,0-.2.05-.41.09-.64a29.44,29.44,0,0,1,20.17-23.48c28.56-9.31,37.14-43.61,37.14-43.61l23,11.48V343.22l30,10-7-55.92,23,11.48Z"/><path d="M191.74,477.56H145.81v-16.1h45.93a26.42,26.42,0,0,0,26.39-26.39V400.63h16.1v34.44A42.55,42.55,0,0,1,191.74,477.56Z"/><path d="M306.54,477.56H260.62a42.54,42.54,0,0,1-42.49-42.49V400.63h16.09v34.44a26.42,26.42,0,0,0,26.4,26.39h45.92v16.1Z"/><path class="cls-3" d="M115.37,85.41c0-28.37-22-71.53-49.92-75.12,0,4.25-.12,64.67,10.34,107.14C98.59,116.17,115.37,110.17,115.37,85.41Z"/><path class="cls-3" d="M330,85.41c0,24.76,18.34,30.66,41.15,31.92,0,0,0,0,0,0,9.72-45.18,9.24-107,9.24-107-2.55.64-5.09,1.24-7.62,1.82C348.37,21.3,330,59.5,330,85.41Z"/><path class="cls-3" d="M139.65,272.63c-4.58,38.54,14.73,69.42,25.72,83.51l3.65-2.43,2.59,0,.09.27a82.92,82.92,0,0,1-2.92-10.78c-3.17-19.53,2.13-64.13,6.54-94.74,0-.23.06-.46.1-.68.14-1,.29-2,.43-3,.05-.29.09-.59.13-.87.16-1.12.33-2.21.49-3.28a1.11,1.11,0,0,1,0-.17,23,23,0,0,0-20.17-26.21l-39.69-4.41-39.7-4.41,42.16,25.27A43,43,0,0,1,139.65,272.63Z"/><path class="cls-3" d="M276.38,244c0,.26.07.52.11.77.15,1,.29,2,.44,3,0,.25.07.5.11.75,4.41,30.61,9.7,75.19,6.54,94.7a92.79,92.79,0,0,1-3.35,12.08c0-.1.07-.21.1-.31l6,.07c10.59-16.38,30.08-51.38,26.4-82.43a42.93,42.93,0,0,1,20.55-41.89l42.16-25.28-21.65,2.41L296,214.28a23,23,0,0,0-20.17,26.22C276,241.63,276.2,242.79,276.38,244Z"/><path class="cls-3" d="M250.63,400.63H201.72a21.47,21.47,0,0,1-21.47-21.47v-3a21.47,21.47,0,0,1,21.47-21.47h48.91a21.47,21.47,0,0,1,21.47,21.47v3A21.47,21.47,0,0,1,250.63,400.63Z"/><path class="cls-3" d="M234.22,310.78H218.13v-15h16.09Zm0-31.12H218.13v-44h16.09Z"/><path class="cls-3" d="M226.18,435.07a34.44,34.44,0,0,1-34.45,34.44H141.22a67.59,67.59,0,0,0,9.37,14.59H301.76a67.59,67.59,0,0,0,9.37-14.59H260.62A34.44,34.44,0,0,1,226.18,435.07Z"/><path d="M284.43,127.15,261.2,138.77l-35-23.35-35,23.35-24-12-4.1,4.09C150.66,143.29,125.64,163,111.37,163v16.09c21.29,0,48.28-22.92,58.88-32.75l22.06,11,33.87-22.57L260,157.34,282.77,146c4.5,3.29,12.27,8.87,20.74,14.51,24.55,16.37,32.72,18.57,37.47,18.57V163h.12c-6.08-.56-32.15-17.43-52.69-32.83Z"/><path d="M452.35,257.12c0-27-7-53.6-20.71-79.09C419.39,155.32,402,133.94,380,114.44l.09-.51c.11-.52.21-1,.31-1.57,0-.15.05-.31.08-.46.11-.57.21-1.13.32-1.7a.43.43,0,0,1,0-.11q.56-3.12,1.07-6.3a.13.13,0,0,0,0-.06c.08-.49.16-1,.23-1.46,0-.26.09-.52.13-.77.06-.43.13-.85.19-1.28s.1-.63.14-1l.18-1.18L382.9,97c.05-.38.11-.75.16-1.13l.15-1.11.15-1.11.15-1.14.15-1.1c0-.38.09-.77.14-1.15s.09-.7.13-1.05l.15-1.21.12-1,.15-1.23.12-1,.13-1.22.12-1c0-.42.09-.84.13-1.25s.07-.63.1-.94.09-.88.14-1.32l.09-.9c.05-.44.09-.89.13-1.34l.09-.89c0-.44.09-.89.13-1.33s.05-.58.08-.87c0-.46.08-.92.13-1.38,0-.26,0-.53.07-.79l.12-1.43c0-.25.05-.5.07-.75l.12-1.44.06-.75.12-1.44c0-.23,0-.47.05-.7l.12-1.54c0-.19,0-.38,0-.57l.12-1.59c0-.18,0-.36,0-.54,0-.56.08-1.11.11-1.66l0-.42.12-1.78a2.83,2.83,0,0,0,0-.29l.12-1.85v-.21c1.5-24.16,1.39-42.93,1.38-44.33L388.38,0h0l-8.12,2-1.8.45c-1.37.35-2.74.68-4.11,1l-.68.16c-4.25,1-8.49,1.93-12.63,2.83C339,11.29,318,15.86,303.86,29.93c-4.89-1.34-12.79-2.59-26.28-3.51-14.85-1-33.79-1.42-53.33-1.12-19.93.3-38.93,1.3-53.5,2.83-13.28,1.39-21.23,3-26.23,4.62-14.3-15.92-37.16-21.1-61.22-26.54-3.08-.7-6.21-1.41-9.37-2.15a38.67,38.67,0,0,0-6.76-1.63L57.48,0V1.15h0l0,9.11v.4c0,3.62,0,26,2.18,52.57,0,.57.09,1.13.14,1.7,0,0,0,.1,0,.16,1.39,16.22,3.61,33.84,7.15,49.65a236.68,236.68,0,0,0-25.63,28.45C14.65,178.11,0,218.57,0,257.12v64.69l21.15-10.58L14.43,364.9l31.49-10.51v47.78L72.34,389c5,12.14,16.53,32.58,39.24,40a21.58,21.58,0,0,1,14.71,17c0,.15,0,.29,0,.4C131,485,158.33,512,192.88,512h66.59c34.56,0,61.92-27,66.54-65.63l.06-.42a21.57,21.57,0,0,1,14.71-17c22.7-7.39,34.23-27.83,39.24-40l26.41,13.21V354.39l31.5,10.51-6.73-53.67,21.16,10.58V257.12ZM368.82,79.59l-.33,3-.05.4-.33,2.88-.06.5c-.12.93-.23,1.85-.35,2.77,0,.2-.05.39-.07.58-.12.93-.24,1.85-.37,2.76,0,.19-.05.37-.07.55-.13,1-.27,1.91-.41,2.85l-.06.44c-.32,2.18-.65,4.34-1,6.49l-.12.74c-.14.79-.27,1.58-.41,2.37-.07.42-.15.84-.23,1.26l-.27,1.49c-22-2.56-26.63-10.91-26.63-23.31,0-22.12,15-54.22,34.22-64.27-.22,12.75-1,35.14-3.43,58.26C368.83,79.46,368.83,79.53,368.82,79.59ZM82.11,108.84c-3.51-16.52-5.6-35.17-6.83-51.77,0-.36-.06-.73-.08-1.09,0-.57-.09-1.14-.12-1.71S75,53.07,75,52.48l-.06-.91c0-.78-.1-1.55-.14-2.32l0-.25c-.67-11-1-20.67-1.12-27.6,18.34,10,33.7,40.89,33.7,64C107.32,100.34,100.79,106.74,82.11,108.84ZM259.47,495.9H192.88c-14.87,0-28-6.85-37.24-18.34h36.1a42.46,42.46,0,0,0,34.44-17.65,42.45,42.45,0,0,0,34.44,17.65h36.1C287.48,489,274.35,495.9,259.47,495.9ZM436.26,295.76l-24.77-12.38,7.29,58.16-28.45-9.48v44.06L370.05,366l-2.44,9.73c-.07.3-7.77,30.08-31.82,37.92a37.28,37.28,0,0,0-25.65,30c0,.28-.08.55-.11.82a70.69,70.69,0,0,1-4.17,17H260.62a26.42,26.42,0,0,1-26.39-26.39V408.68h16.41a29.55,29.55,0,0,0,29.51-29.5c1-2.65,3.13-8.13,5.26-14.16l26.29,23.91,21.24-53.1,22,22,22.65-67.94,22.59,11.3,12.8-64-15.79-3.15-8.66,43.32-20.34-10.17L348,328.07l-20.89-20.88-21.69,54.22L291.83,349.1l-1.9,2.09a63.36,63.36,0,0,0,1.6-6.68c3.47-21.41-2.27-69-7.71-105.21a14.92,14.92,0,0,1,13.1-17l79.39-8.83-1.77-16-79.39,8.82a31,31,0,0,0-27.25,35.41c7.33,48.82,10.15,85.35,7.74,100.24a106.35,106.35,0,0,1-4,13.56,29.43,29.43,0,0,0-21-8.84H201.72a29.43,29.43,0,0,0-21,8.84,106.35,106.35,0,0,1-4-13.56c-2.41-14.89.4-51.42,7.73-100.24a31,31,0,0,0-27.24-35.41l-79.39-8.82-1.78,16,79.39,8.83a14.9,14.9,0,0,1,13.1,17c-5.43,36.18-11.17,83.8-7.7,105.21.2,1.23.53,2.71,1,4.34l-19.92,13.29-10.4-41.59-21.84,10.93-19-64L69.63,278,58.79,233.74l-15.63,3.83,15.63,63.81,21.89-10.95,19,64,21.08-10.54,11.07,44.27,35.08-23.39c2.16,6.11,4.3,11.69,5.34,14.37a29.54,29.54,0,0,0,29.51,29.49h16.41v26.4a26.42,26.42,0,0,1-26.39,26.39H146.49a71.36,71.36,0,0,1-4.17-17c0-.27-.07-.55-.11-.85a37.27,37.27,0,0,0-25.64-29.95C92.69,405.85,84.81,376,84.74,375.71L82.31,366,62,376.12V332.05l-28.44,9.49,7.29-58.17L16.1,295.76V257.12c0-19.21,4.06-39,11.75-58.27H71.46v-16.1H35.19q3.66-7.09,8-14H81.36v-16.1H54.29a221.8,221.8,0,0,1,24.9-27.36c14.51-1,44.22-5,44.22-39.87,0-15.82-5.86-34.9-15.67-51q-2.11-3.48-4.38-6.61c14,4.15,25.44,9.61,32.11,19.5l5.05,7.48L147.28,49c2.16-1.38,10.27-3.25,24.92-4.81V74.68h16.1V42.79c7.66-.51,16.42-.93,26.33-1.19V61.33h16.1v-20c10.2-.07,19.42,0,27.58.29V74.68H274.4V42.35c15.28,1,24.59,2.46,27.07,3.71l6.12,4.54,4.84-6.13c6.72-8.53,17.19-13.3,29.78-16.93C329.77,44.57,322,67.12,322,85.41c0,34,29.46,38.6,44.76,39.71l.1.15,1.12,0a249.75,249.75,0,0,1,27,27.34H370.52v16.1h36.69q4.76,6.93,8.76,14H380.42v16.09H424a146.5,146.5,0,0,1,12.31,58.27v38.64ZM201.72,392.58a13.43,13.43,0,0,1-13.42-13.42v-3a13.43,13.43,0,0,1,13.42-13.42h48.91a13.43,13.43,0,0,1,13.42,13.42v3a13.43,13.43,0,0,1-13.42,13.42Z"/></svg>