<svg xmlns="http://www.w3.org/2000/svg" width="17" height="17" viewBox="0 0 17 17">
  <metadata><?xpacket begin="﻿" id="W5M0MpCehiHzreSzNTczkc9d"?>
<x:xmpmeta xmlns:x="adobe:ns:meta/" x:xmptk="Adobe XMP Core 5.6-c142 79.160924, 2017/07/13-01:06:39        ">
   <rdf:RDF xmlns:rdf="http://www.w3.org/1999/02/22-rdf-syntax-ns#">
      <rdf:Description rdf:about=""/>
   </rdf:RDF>
</x:xmpmeta>
                                                                                                    
                                                                                                    
                                                                                                    
                                                                                                    
                                                                                                    
                                                                                                    
                                                                                                    
                                                                                                    
                                                                                                    
                                                                                                    
                                                                                                    
                                                                                                    
                                                                                                    
                                                                                                    
                                                                                                    
                                                                                                    
                                                                                                    
                                                                                                    
                                                                                                    
                                                                                                    
                           
<?xpacket end="w"?></metadata>
<defs>
    <style>
      .cls-1 {
        fill: #acacac;
        fill-rule: evenodd;
      }
    </style>
  </defs>
  <path class="cls-1" d="M21.662,469.992a0.314,0.314,0,0,1-.207-0.082L18.088,466.6a0.276,0.276,0,0,1,0-.4l3.367-3.308a0.291,0.291,0,0,1,.315-0.059,0.276,0.276,0,0,1,.179.258v2.047h9.235a0.461,0.461,0,0,0,.463-0.453v-2.3a0.3,0.3,0,0,1,.081-0.2l2.256-2.213a0.3,0.3,0,0,1,.314-0.063,0.289,0.289,0,0,1,.179.262v5.008a2.469,2.469,0,0,1-2.793,2.731H21.949v1.8a0.276,0.276,0,0,1-.179.258,0.31,0.31,0,0,1-.108.023h0Zm0,0-2.847-6.9a0.315,0.315,0,0,1-.112-0.021,0.28,0.28,0,0,1-.179-0.261v-5a2.468,2.468,0,0,1,2.793-2.732h9.743v-1.8a0.284,0.284,0,0,1,.176-0.261,0.3,0.3,0,0,1,.314.063l3.368,3.3a0.273,0.273,0,0,1,0,.4l-3.368,3.307a0.289,0.289,0,0,1-.49-0.2v-2.042H21.817a0.459,0.459,0,0,0-.46.454V460.6a0.287,0.287,0,0,1-.085.2l-2.259,2.213a0.284,0.284,0,0,1-.2.083h0Zm0,0" transform="translate(-18 -453)"/>
</svg>
