<svg id="Layer_1" data-name="Layer 1" xmlns="http://www.w3.org/2000/svg" viewBox="0 0 525.94 532.22"><defs><style>.cls-1{fill:#810f00;}.cls-2{fill:#a8a8a7;}.cls-3{fill:#fc0f00;}</style></defs><title>progress</title><path class="cls-1" d="M427.5,164l15-82.5L427.5,13H256.29l75,76-75,75Zm0,0"/><path d="M427.5,170.5H256.29a6.5,6.5,0,0,1-4.6-11.1L322.13,89l-70.47-71.4A6.5,6.5,0,0,1,256.29,6.5H427.5a6.51,6.51,0,0,1,6.35,5.11l15,68.5a6.63,6.63,0,0,1,0,2.55l-15,82.5A6.52,6.52,0,0,1,427.5,170.5ZM272,157.5h150.1l13.79-75.88L422.27,19.5H271.84l64.08,64.93a6.52,6.52,0,0,1,0,9.17Z"/><rect class="cls-2" x="421" y="6.5" width="43" height="284" rx="6.5" ry="6.5"/><path d="M457.5,13V284h-30V13h30m0-13h-30a13,13,0,0,0-13,13V284a13,13,0,0,0,13,13h30a13,13,0,0,0,13-13V13a13,13,0,0,0-13-13Z"/><path class="cls-3" d="M367.5,254v60h-120v60h-120v60H6.5v91h512V254Zm0,0"/><path d="M518.5,531.5H6.5A6.5,6.5,0,0,1,0,525V434a6.5,6.5,0,0,1,6.5-6.5H121V374a6.5,6.5,0,0,1,6.5-6.5H241V314a6.5,6.5,0,0,1,6.5-6.5H361V254a6.5,6.5,0,0,1,6.5-6.5h151A6.5,6.5,0,0,1,525,254V525A6.5,6.5,0,0,1,518.5,531.5ZM13,518.5H512v-258H374V314a6.5,6.5,0,0,1-6.5,6.5H254V374a6.5,6.5,0,0,1-6.5,6.5H134V434a6.5,6.5,0,0,1-6.5,6.5H13Z"/><rect class="cls-1" x="442.5" y="260.5" width="69.75" height="258.06"/><polygon class="cls-3" points="414.5 19.5 271.84 19.5 409.5 157.16 414.5 157.5 414.5 19.5"/></svg>