<svg id="Capa_1" data-name="Capa 1" xmlns="http://www.w3.org/2000/svg" viewBox="0 0 512 403.74"><defs><style>.cls-1{fill:#fc0f00;}.cls-2{fill:#a8a8a7;}.cls-3{fill:#810f00;}</style></defs><title>rebutations</title><polygon class="cls-1" points="380.11 282.35 337.58 282.35 392.68 397.23 446.99 397.23 380.11 282.35"/><polygon class="cls-1" points="229.38 282.35 271.92 282.35 216.81 397.23 162.5 397.23 229.38 282.35"/><circle class="cls-2" cx="304.75" cy="176.05" r="169.55"/><circle class="cls-1" cx="304.75" cy="176.05" r="128.78"/><circle class="cls-3" cx="304.75" cy="176.05" r="82.98"/><circle class="cls-1" cx="304.75" cy="176.05" r="34.99"/><path class="cls-1" d="M75.24,149.13H7.5a37.31,37.31,0,0,1,11.44,26.92A37.27,37.27,0,0,1,7.5,203H75.24l36.14-26.91Z"/><path class="cls-3" d="M183.19,310.58c-21.67-13.47-33.25-26.94-40.8-40.41-16.5,13.47-29,26.94-31.37,40.41-32.08-44.85,47.62-89.69,15.54-134.53h72.17C230.81,220.89,151.11,265.73,183.19,310.58Z"/><path d="M424,46.57A176.08,176.08,0,0,0,131.45,144.9a6.52,6.52,0,0,0,5.26,7.55h0a7.34,7.34,0,0,0,1.15.1,6.5,6.5,0,0,0,6.39-5.36,163.07,163.07,0,0,1,271-91.06A6.5,6.5,0,0,0,424,46.57Z"/><path d="M395,274.39a6.46,6.46,0,0,0,4.55-1.86A134.28,134.28,0,0,0,440,176.05c0-74.59-60.69-135.28-135.28-135.28A135.34,135.34,0,0,0,173.16,144.54a6.5,6.5,0,0,0,12.65,3,122.84,122.84,0,0,1,42.64-67.07,120.94,120.94,0,0,1,76.3-26.72,122.28,122.28,0,0,1,85.71,209.49A6.5,6.5,0,0,0,395,274.39Z"/><path d="M207,269.52a135.33,135.33,0,0,0,167.25,22.64A6.5,6.5,0,0,0,367.52,281h0a122.33,122.33,0,0,1-151.17-20.47,6.5,6.5,0,1,0-9.39,9Z"/><path d="M253.63,249.49a89.46,89.46,0,1,0-32.51-105.32,6.5,6.5,0,1,0,12.14,4.64,76.48,76.48,0,1,1,71.49,103.71,76.48,76.48,0,0,1-71.33-48.82,6.51,6.51,0,0,0-6.07-4.15A6.42,6.42,0,0,0,225,200a6.52,6.52,0,0,0-3.71,8.41A89.36,89.36,0,0,0,253.63,249.49Z"/><path d="M263.92,183.37a41.5,41.5,0,1,0,0-14.65l-.15.82H113.54L79.12,143.92a6.53,6.53,0,0,0-3.88-1.29H7.5A6.5,6.5,0,0,0,3,153.81a30.66,30.66,0,0,1,9.46,22.24A30.7,30.7,0,0,1,3,198.29,6.49,6.49,0,0,0,7.5,209.46H75.24a6.52,6.52,0,0,0,3.88-1.28l34.42-25.63h9.51l.29.49c5.79,9.94,5.95,20.68.52,34.83A6.5,6.5,0,0,0,136,222.53c3.58-9.33,7.69-23.49,2.09-38.63l-.5-1.35h57.65l.28.5c10.46,18.11.84,36.23-10.3,57.21C177.15,255.47,168,272.69,169,290l.14,2.42-1.81-1.62A92.49,92.49,0,0,1,148.06,267a6.51,6.51,0,0,0-9.78-1.85c-12.26,10-20.87,18.86-26.34,27.07l-1.46,2.19-.37-2.6c-1.85-13.22,4.84-27.29,12.46-41.74a6.49,6.49,0,0,0-2.72-8.78h0a6.47,6.47,0,0,0-3-.76,6.37,6.37,0,0,0-1.93.3,6.45,6.45,0,0,0-3.83,3.17c-10,18.91-23.62,44.81-5.34,70.37a6.58,6.58,0,0,0,6.72,2.56,6.5,6.5,0,0,0,5-5.21c1.56-8.77,8.92-18.89,22.52-30.94l.85-.75.64.94c9.13,13.39,21.31,24.55,38.33,35.13a6.49,6.49,0,0,0,8.71-9.3c-13.69-19.14-3.53-38.28,8.23-60.43,10.14-19.1,21.64-40.74,13.57-62.47l-.5-1.34h54Zm40.83-13.82H277l.36-1.28a28.5,28.5,0,1,1,0,15.55l-.36-1.27h27.77a6.5,6.5,0,0,0,0-13ZM73.09,196.46H20.46l.69-1.43a43.41,43.41,0,0,0,4.29-19,43.37,43.37,0,0,0-4.29-19l-.69-1.44H73.09l27.41,20.42Z"/><path d="M504.5,390.73H450.72l-42.19-72.49.72-.53a176.8,176.8,0,0,0,71.54-141.66,174.54,174.54,0,0,0-35.43-106A6.5,6.5,0,1,0,435,77.93,163.13,163.13,0,0,1,361.9,328.78l-.47.19-.47.17-.1.05-.1,0h0A162.74,162.74,0,0,1,213.2,311c-2.24-1.5-4.58-3.19-7.16-5.14a6.5,6.5,0,0,0-7.86,10.36c.7.52,1.38,1,2,1.53l.72.53-42.18,72.48H105a6.5,6.5,0,0,0,0,13H504.5a6.5,6.5,0,0,0,0-13Zm-330.69,0,37.95-65.2.87.53a175.87,175.87,0,0,0,24,12.36l1,.4-24.9,51.91Zm53.33,0,22.72-47.37.84.27a176.69,176.69,0,0,0,108.1,0l.84-.26,22.71,47.36Zm169.63,0-24.88-51.89,1-.4,1.42-.62,1.23-.53q2.16-.94,4.29-2l.89-.43q2.11-1,4.21-2.08l.12-.06c1.45-.74,2.86-1.5,4.27-2.27l.9-.5c1.38-.76,2.74-1.54,4.1-2.34l1-.62,1.56-1,.87-.54,37.94,65.18Z"/></svg>