<svg id="Capa_1" data-name="Capa 1" xmlns="http://www.w3.org/2000/svg" viewBox="0 0 512 512"><defs><style>.cls-1{fill:#a7a7a6;}.cls-2{fill:#e5281e;}.cls-3{fill:#811810;}</style></defs><title>share</title><polygon class="cls-1" points="439.83 41.29 430.57 26.97 288.56 118.85 67.39 65.77 85.22 297.6 26.04 475.17 42.22 480.56 93.86 325.65 145.51 480.61 161.69 475.21 102.3 297.04 86.21 87.83 291.7 137.15 292.26 136.79 477.08 153.58 478.63 136.59 315.48 121.76 439.83 41.29"/><polygon class="cls-1" points="347.81 270.09 334.86 258.98 243.56 365.49 213.14 228.55 196.46 232.25 234.31 402.51 241.91 393.64 433.07 443.51 437.38 427 254.26 379.23 347.81 270.09"/><circle class="cls-2" cx="76.8" cy="76.8" r="68.27"/><circle class="cls-2" cx="435.2" cy="435.2" r="68.27"/><circle class="cls-3" cx="238.93" cy="384" r="42.67"/><circle class="cls-3" cx="93.87" cy="298.67" r="42.67"/><circle class="cls-3" cx="290.13" cy="128" r="42.67"/><circle class="cls-2" cx="34.13" cy="477.87" r="25.6"/><circle class="cls-2" cx="153.6" cy="477.87" r="25.6"/><circle class="cls-2" cx="204.8" cy="230.4" r="25.6"/><circle class="cls-2" cx="341.33" cy="264.53" r="25.6"/><circle class="cls-2" cx="477.87" cy="145.07" r="25.6"/><circle class="cls-2" cx="435.2" cy="34.13" r="25.6"/><path d="M76.8,1.5a75.3,75.3,0,1,0,75.3,75.3A75.39,75.39,0,0,0,76.8,1.5ZM76.8,138a61.23,61.23,0,0,1,0-122.46h0A61.23,61.23,0,0,1,76.8,138Z"/><path d="M435.2,2.5a31.64,31.64,0,1,0,31.63,31.63A31.67,31.67,0,0,0,435.2,2.5Zm0,51.2a19.57,19.57,0,1,1,19.57-19.57A19.59,19.59,0,0,1,435.2,53.7Z"/><path d="M290.13,176.7a48.7,48.7,0,1,0-48.7-48.7A48.81,48.81,0,0,0,290.13,176.7Zm0-85.33A36.63,36.63,0,1,1,253.5,128,36.68,36.68,0,0,1,290.13,91.37Z"/><path d="M477.87,113.43a31.64,31.64,0,1,0,31.63,31.64A31.67,31.67,0,0,0,477.87,113.43Zm0,51.2a19.57,19.57,0,1,1,19.56-19.56A19.58,19.58,0,0,1,477.87,164.63Z"/><path d="M435.2,359.9a75.3,75.3,0,1,0,75.3,75.3A75.39,75.39,0,0,0,435.2,359.9Zm0,136.53a61.23,61.23,0,1,1,0-122.46h0a61.23,61.23,0,1,1,0,122.46Z"/><path d="M93.87,348.37a49.7,49.7,0,1,0-49.7-49.7A49.83,49.83,0,0,0,93.87,348.37Zm0-85.34a35.64,35.64,0,1,1-35.64,35.64A35.67,35.67,0,0,1,93.87,263Z"/><path d="M34.13,446.23a31.64,31.64,0,1,0,31.64,31.64A31.67,31.67,0,0,0,34.13,446.23Zm0,51.2A19.57,19.57,0,1,1,53.7,477.87,19.58,19.58,0,0,1,34.13,497.43Z"/><path d="M238.93,334.3a49.7,49.7,0,1,0,49.7,49.7A49.76,49.76,0,0,0,238.93,334.3Zm0,85.33A35.63,35.63,0,1,1,274.57,384,35.67,35.67,0,0,1,238.93,419.63Z"/><path d="M204.8,198.77a31.63,31.63,0,1,0,31.63,31.63A31.67,31.67,0,0,0,204.8,198.77Zm0,51.2a19.57,19.57,0,1,1,19.57-19.57A19.59,19.59,0,0,1,204.8,250Z"/><path d="M341.33,232.9A31.64,31.64,0,1,0,373,264.53,31.67,31.67,0,0,0,341.33,232.9Zm0,51.2a19.57,19.57,0,1,1,19.57-19.57A19.58,19.58,0,0,1,341.33,284.1Z"/><path d="M153.6,446.23a31.64,31.64,0,1,0,31.63,31.64A31.67,31.67,0,0,0,153.6,446.23Zm0,51.2a19.57,19.57,0,1,1,19.57-19.56A19.58,19.58,0,0,1,153.6,497.43Z"/></svg>