<svg xmlns="http://www.w3.org/2000/svg" width="446" height="26" viewBox="0 0 446 26">
  <metadata><?xpacket begin="﻿" id="W5M0MpCehiHzreSzNTczkc9d"?>
<x:xmpmeta xmlns:x="adobe:ns:meta/" x:xmptk="Adobe XMP Core 5.6-c142 79.160924, 2017/07/13-01:06:39        ">
   <rdf:RDF xmlns:rdf="http://www.w3.org/1999/02/22-rdf-syntax-ns#">
      <rdf:Description rdf:about=""/>
   </rdf:RDF>
</x:xmpmeta>
                                                                                                    
                                                                                                    
                                                                                                    
                                                                                                    
                                                                                                    
                                                                                                    
                                                                                                    
                                                                                                    
                                                                                                    
                                                                                                    
                                                                                                    
                                                                                                    
                                                                                                    
                                                                                                    
                                                                                                    
                                                                                                    
                                                                                                    
                                                                                                    
                                                                                                    
                                                                                                    
                           
<?xpacket end="w"?></metadata>
<defs>
    <style>
      .cls-1 {
        fill: #fff;
        fill-rule: evenodd;
        opacity: 0.2;
      }
    </style>
  </defs>
  <path id="Rectangle_1084_copy_16" data-name="Rectangle 1084 copy 16" class="cls-1" d="M934,285h1v26h-1V285Zm13,0h1v26h-1V285Zm12,0h1v26h-1V285Zm13,0h1v26h-1V285Zm-89,0h1v26h-1V285Zm13,0h1v26h-1V285Zm12,0h1v26h-1V285Zm13,0h1v26h-1V285Zm-88,0h1v26h-1V285Zm13,0h1v26h-1V285Zm12,0h1v26h-1V285Zm13,0h1v26h-1V285Zm-89,0h1v26h-1V285Zm13,0h1v26h-1V285Zm12,0h1v26h-1V285Zm13,0h1v26h-1V285Zm-89,0h1v26h-1V285Zm13,0h1v26h-1V285Zm12,0h1v26h-1V285Zm13,0h1v26h-1V285Zm267,0h1v26h-1V285Zm13,0h1v26h-1V285Zm12,0h1v26h-1V285Zm13,0h1v26h-1V285Zm-89,0h1v26h-1V285Zm13,0h1v26h-1V285Zm12,0h1v26h-1V285Zm13,0h1v26h-1V285Zm115,0h1v26h-1V285Zm13,0h1v26h-1V285Zm12,0h1v26h-1V285Zm13,0h1v26h-1V285Zm-89,0h1v26h-1V285Zm13,0h1v26h-1V285Zm12,0h1v26h-1V285Zm13,0h1v26h-1V285Z" transform="translate(-731 -285)"/>
</svg>
