<svg id="Capa_1" data-name="Capa 1" xmlns="http://www.w3.org/2000/svg" viewBox="0 0 446.16 506"><defs><style>.cls-1{fill:#a8a8a7;}.cls-2{fill:#fc0f00;}.cls-3{fill:#810f00;}</style></defs><title>titles</title><circle class="cls-1" cx="223.08" cy="179" r="172"/><polygon class="cls-2" points="190.3 354.47 106.85 499 79.17 431.66 7.01 441.35 88.99 299.35 190.3 354.47"/><polygon class="cls-2" points="255.86 354.47 339.3 499 366.99 431.66 439.15 441.35 357.17 299.35 255.86 354.47"/><circle class="cls-3" cx="223.08" cy="179" r="129.45"/><polygon class="cls-2" points="223.06 104.27 246.57 151.88 299.11 159.5 261.1 196.56 270.09 248.89 223.09 224.19 176.11 248.91 185.07 196.58 147.04 159.53 199.58 151.89 223.06 104.27"/><path d="M306.29,157.16a7.51,7.51,0,0,0-6.1-5.14L251.58,145l-21.75-44a7.55,7.55,0,0,0-13.54,0L194.56,145,146,152.06a7.55,7.55,0,0,0-4.18,12.88L177,199.22l-8.29,48.42a7.5,7.5,0,0,0,3,7.38,7.66,7.66,0,0,0,8,.57l43.47-22.87,43.48,22.85a7.56,7.56,0,0,0,11-8l-8.32-48.41,35.17-34.3A7.5,7.5,0,0,0,306.29,157.16Zm-50.46,34a7.54,7.54,0,0,0-2.17,6.68l6.4,37.25L226.6,217.51a7.52,7.52,0,0,0-7,0l-33.45,17.6,6.38-37.25a7.57,7.57,0,0,0-2.17-6.69L163.27,164.8l37.4-5.44a7.54,7.54,0,0,0,5.68-4.13l16.71-33.89,16.74,33.88a7.56,7.56,0,0,0,5.68,4.13l37.4,5.42Z"/><path d="M445,445.25a7,7,0,0,0,.25-7.39L361.54,292.32l1.28-1.6A176.94,176.94,0,0,0,402.08,179c0-98.7-80.3-179-179-179s-179,80.3-179,179A176.88,176.88,0,0,0,83.34,290.72l1.28,1.6L.94,437.86a7,7,0,0,0,.26,7.39,7,7,0,0,0,6.74,3l66.81-9,25.63,62.34a7,7,0,0,0,6,4.32h.47a7,7,0,0,0,6.06-3.5l83.49-144.61,1-1.72,2,.27a180.66,180.66,0,0,0,47.38,0l1.9-.26,1.18,1.88,83.39,144.44a7,7,0,0,0,12.54-.83l25.64-62.34,66.8,9A7,7,0,0,0,445,445.25ZM107.91,483.16,87,432.29l17-27.69A7,7,0,0,0,92,397.28L74.93,425.16l-54.77,7.36L94.41,303.37l2.77,2.74A179.16,179.16,0,0,0,179,352.49l3.84,1ZM223.08,344c-91,0-165-74-165-165s74-165,165-165,165,74,165,165S314.06,344,223.08,344Zm148.14,81.16-17.09-27.88a7,7,0,1,0-11.93,7.32l17,27.69-20.93,50.87L263.36,353.47l3.84-1A179.19,179.19,0,0,0,349,306.11l2.76-2.74L426,432.52Z"/><path d="M223.08,43a136.11,136.11,0,0,0-66.61,17.4,6.55,6.55,0,1,0,6.42,11.42A122.94,122.94,0,0,1,346,179a121.79,121.79,0,0,1-11.93,52.88,6.55,6.55,0,1,0,11.82,5.65A134.72,134.72,0,0,0,359.08,179C359.08,104,298.07,43,223.08,43Z"/><path d="M320.51,264.48a6.49,6.49,0,0,0-4.56-1.85h-.1a6.48,6.48,0,0,0-4.61,2l-.23.24A6.55,6.55,0,0,0,315.68,276a6.48,6.48,0,0,0,4.69-2l.27-.28a6.53,6.53,0,0,0-.13-9.26Z"/><path d="M291.75,294.27a6.55,6.55,0,0,0-9.45-7.56,122.95,122.95,0,0,1-171.12-158.6,6.56,6.56,0,0,0-3.25-8.68h0a6.5,6.5,0,0,0-2.7-.59,6.58,6.58,0,0,0-6,3.84A134.87,134.87,0,0,0,87.08,179c0,75,61,136,136,136a136.08,136.08,0,0,0,65.54-16.81A6.48,6.48,0,0,0,291.75,294.27Z"/><path d="M132.81,86a6.5,6.5,0,0,0-4.45-1.76h-.25a6.49,6.49,0,0,0-4.55,2.08l-.24.25a6.56,6.56,0,0,0,4.81,11,6.47,6.47,0,0,0,4.81-2.11l.2-.21a6.53,6.53,0,0,0-.33-9.26Z"/></svg>