<svg xmlns="http://www.w3.org/2000/svg" width="16.156" height="17.063" viewBox="0 0 16.156 17.063">
  <metadata><?xpacket begin="﻿" id="W5M0MpCehiHzreSzNTczkc9d"?>
<x:xmpmeta xmlns:x="adobe:ns:meta/" x:xmptk="Adobe XMP Core 5.6-c142 79.160924, 2017/07/13-01:06:39        ">
   <rdf:RDF xmlns:rdf="http://www.w3.org/1999/02/22-rdf-syntax-ns#">
      <rdf:Description rdf:about=""/>
   </rdf:RDF>
</x:xmpmeta>
                                                                                                    
                                                                                                    
                                                                                                    
                                                                                                    
                                                                                                    
                                                                                                    
                                                                                                    
                                                                                                    
                                                                                                    
                                                                                                    
                                                                                                    
                                                                                                    
                                                                                                    
                                                                                                    
                                                                                                    
                                                                                                    
                                                                                                    
                                                                                                    
                                                                                                    
                                                                                                    
                           
<?xpacket end="w"?></metadata>
<defs>
    <style>
      .cls-1 {
        fill: #acacac;
        fill-rule: evenodd;
      }
    </style>
  </defs>
  <path class="cls-1" d="M23.826,235.842a2.74,2.74,0,0,1-2.425-.355,2.535,2.535,0,0,1-1.081-1.868L18.1,236.831a0.557,0.557,0,0,0,.478.867h1.945l0.992,1.92a0.584,0.584,0,0,0,1,.046l2.034-3.153A2.754,2.754,0,0,1,23.826,235.842Zm10.225,0.989-2.35-3.392a2.54,2.54,0,0,1-1.095,2.048,2.737,2.737,0,0,1-2.424.355,2.794,2.794,0,0,1-.626.6l2.078,3.218a0.585,0.585,0,0,0,1-.046l0.991-1.92h1.946A0.557,0.557,0,0,0,34.051,236.831Zm-2.219-7.7a1.857,1.857,0,0,0,.524-1.769,2.007,2.007,0,0,0-1.551-1.152,0.338,0.338,0,0,1-.223-0.3,1.922,1.922,0,0,0-.653-1.784,2.078,2.078,0,0,0-1.954-.049,0.355,0.355,0,0,1-.361-0.114A2.021,2.021,0,0,0,26,222.889a2.017,2.017,0,0,0-1.611,1.072,0.355,0.355,0,0,1-.361.113,2.081,2.081,0,0,0-1.954.049,1.917,1.917,0,0,0-.653,1.784,0.339,0.339,0,0,1-.222.3,2.011,2.011,0,0,0-1.552,1.152,1.909,1.909,0,0,0,.556,1.814,0.33,0.33,0,0,1,0,.368,1.914,1.914,0,0,0-.556,1.814,2.01,2.01,0,0,0,1.552,1.152,0.336,0.336,0,0,1,.222.3,1.919,1.919,0,0,0,.653,1.784,2.075,2.075,0,0,0,1.954.05,0.356,0.356,0,0,1,.361.113A2.017,2.017,0,0,0,26,235.821a2.018,2.018,0,0,0,1.612-1.072,0.355,0.355,0,0,1,.361-0.113,2.078,2.078,0,0,0,1.954-.05,1.917,1.917,0,0,0,.653-1.783,0.336,0.336,0,0,1,.223-0.3,2.011,2.011,0,0,0,1.551-1.152,1.859,1.859,0,0,0-.524-1.769A0.406,0.406,0,0,1,31.833,229.126ZM26,232.7a3.343,3.343,0,1,1,3.453-3.341A3.4,3.4,0,0,1,26,232.7Zm0-5.568a2.228,2.228,0,1,0,2.3,2.227A2.267,2.267,0,0,0,26,227.128Z" transform="translate(-18 -222.875)"/>
</svg>
